<?xml version="1.0" standalone="no"?>
<!DOCTYPE svg PUBLIC "-//W3C//DTD SVG 1.1//EN" "http://www.w3.org/Graphics/SVG/1.1/DTD/svg11.dtd" >
<svg>
<metadata>
Created by FontForge 20090914 at Tue Feb 28 12:27:06 2017
 By www-data
Copyright [c]  - Roger White - 1994 - All Rights Reserved - see .txt file for terms of distribution and use.
</metadata>
<defs>
<font id="MilfordCondensedBold" horiz-adv-x="500" >
  <font-face 
    font-family="Milford Condensed"
    font-weight="700"
    font-stretch="condensed"
    units-per-em="1000"
    panose-1="2 11 8 0 0 0 0 0 0 0"
    ascent="800"
    descent="-200"
    x-height="564"
    cap-height="752"
    bbox="-29 -237 1084 971"
    underline-thickness="50"
    underline-position="-50"
    unicode-range="U+0020-U+2122"
  />
<missing-glyph horiz-adv-x="502" 
d="M-1 0h500v500h-500v-500zM9 10v480h480v-480h-480z" />
    <glyph glyph-name=".notdef" horiz-adv-x="502" 
d="M-1 0h500v500h-500v-500zM9 10v480h480v-480h-480z" />
    <glyph glyph-name="space" unicode=" " horiz-adv-x="275" 
 />
    <glyph glyph-name="space" unicode="&#xa0;" horiz-adv-x="275" 
 />
    <glyph glyph-name="exclam" unicode="!" horiz-adv-x="293" 
d="M213 510v242h-135c0 -177.333 1 -275 3 -293l5 -53l18 -209h84l16 209l6 52zM209 0v137h-129v-137h129z" />
    <glyph glyph-name="quotedbl" unicode="&#x22;" horiz-adv-x="330" 
d="M293 430v271h-96v-271h96zM133 430v271h-94v-271h94z" />
    <glyph glyph-name="numbersign" unicode="#" horiz-adv-x="770" 
d="M746 512h-137l73 203h-110l-70 -203h-119l70 203h-107l-73 -203h-144l-35 -98h144l-41 -117h-138l-38 -100h141l-72 -201h107l74 201h120l-73 -201h108l72 201h143l35 100h-143l41 117h137zM469 414l-43 -119h-123l43 119h123z" />
    <glyph glyph-name="dollar" unicode="$" 
d="M463 200c0 45.333 -7.99512 82.333 -23.9951 111c-16 29.333 -39 54.333 -69 75l-100 61v201c22.667 0 38.667 -11.667 48 -35c6.66699 -14 10 -35.333 10 -64h117c0 62 -13.333 109.667 -40 143c-26.667 34 -69.334 51 -128.001 51h-4v68h-54v-68
c-26.667 0 -50.667 -5 -72 -15c-22.667 -12 -41.334 -25.333 -56.001 -40c-30.667 -32.667 -46 -72.334 -46 -119.001s8.33301 -84.667 25 -114c16 -30 37.667 -55.667 65 -77c21.333 -19.333 50.666 -38.666 87.999 -57.999v-220c-32 8 -52.333 25.333 -61 52
c-5.33301 14 -8 42 -8 84h-119c0 -8 0.333008 -15 1 -21c0 -10.667 1.33301 -25 4 -43l11 -53c13.333 -40 31.666 -68.667 54.999 -86c30 -22 67.667 -33 113 -33v-98h54v98c29.333 0 55.666 5.66699 78.999 17s43.333 25.333 60 42c34 36 51 83 51 141zM223.005 475
c-19.333 15.333 -32.999 28.999 -40.999 40.999c-12.667 16.667 -19 35 -19 55c0 18.667 4.66699 35.667 14 51c11.333 16.667 26.666 25.334 45.999 26.001v-173zM336.006 188.999c0 -22.667 -5.66699 -42.333 -17 -59c-10.667 -16 -27 -26 -49 -30v197
c24 -14.667 40 -29.667 48 -45c12 -18 18 -39 18 -63z" />
    <glyph glyph-name="percent" unicode="%" horiz-adv-x="771" 
d="M354 570c0 62.667 -10.332 108.333 -30.999 137c-24.667 34 -66 51 -124 51s-99 -16.667 -123 -50c-20.667 -26.667 -31 -70.667 -31 -132c0 -60 9.66699 -105.667 29 -137c25.333 -37.333 65.666 -56 120.999 -56c56.667 0 98 17.667 124 53c23.333 31.333 35 76 35 134
zM256.001 567.999c0 -12.667 -0.668945 -26.332 -2.00195 -40.999c-0.666992 -10.667 -2.66699 -20.667 -6 -30c-10 -25.333 -26.333 -38 -49 -38c-23.333 0 -39.666 9.66699 -48.999 29c-4.66699 9.33301 -7 28.666 -7 57.999c0 33.333 1 57.333 3 72
c2.66699 12 4.66699 20.667 6 26c1.33301 4.66699 2.33301 7.66699 3 9c0.666992 4 1.33398 6.66699 2.00098 8c4 9.33301 10 15.333 18 18c7.33301 2 20 3 38 3c16.667 0 29 -14.333 37 -43c4 -16 6 -39.667 6 -71zM593.999 758.001h-74l-344 -772h72zM726.999 174.001
c0 54 -9.66797 96.667 -29.001 128c-24 38 -60.667 57 -110 57c-70 0 -117 -16.667 -141 -50c-20.667 -28.667 -31 -73 -31 -133c0 -60.667 10 -105.667 30 -135c24.667 -36.667 65.334 -55 122.001 -55c57.333 0 99 17.667 125 53c22.667 28.667 34 73.667 34 135z
M628.998 172.001c0 -30 -2.66797 -54 -8.00098 -72c-10 -26 -27 -39 -51 -39c-25.333 0 -41.666 13.667 -48.999 41c-3.33301 14.667 -5 37.667 -5 69c0 15.333 0.666992 30.333 2 45c1.33301 11.333 3.33301 21 6 29c10 25.333 26.667 38 50 38c24.667 0 41 -13.667 49 -41
c4 -16 6 -39.333 6 -70z" />
    <glyph glyph-name="ampersand" unicode="&#x26;" horiz-adv-x="658" 
d="M609 -1l-89 151.002c21.333 34 37.666 72.667 48.999 116c10 42 15 85.333 15 130h-115l-1 -36l-3 -32c-3.33301 -26.667 -8 -47.334 -14 -62.001l-90 156c31.333 22.667 57.333 50 78 82c20 31.333 30 68.333 30 111c0 41.333 -15.333 74.333 -46 99
s-69.334 37 -116.001 37c-49.333 0 -88.666 -13.333 -117.999 -40c-30.667 -26.667 -46 -56 -46 -88s3 -57.667 9 -77l10 -27l12 -25l27 -51l-75 -66c-22 -22.667 -38.333 -45.334 -49 -68.001c-12.667 -25.333 -19 -65 -19 -119c0 -53.333 19.333 -100.333 58 -141
c38.667 -41.333 82.667 -62 132 -62c47.333 0 84.333 4.66699 111 14c26.667 12 52.334 27.667 77.001 47l25 -49h148zM357 605.002c0 -16.667 -4.66602 -32.666 -13.999 -47.999c-10 -15.333 -22.667 -29 -38 -41l-22 36c-15.333 23.333 -23 43.666 -23 60.999
c0 18 5.33301 30.333 16 37s23.667 10 39 10s26.666 -5.66699 33.999 -17c5.33301 -9.33301 8 -22 8 -38zM383.001 139.003l-27 -18l-16 -9c-18 -8 -38 -12 -60 -12c-23.333 0 -44 12.333 -62 37c-18 25.333 -27 50.666 -27 75.999c0 26.667 6.66699 52.334 20 77.001
c12.667 22 29 40 49 54z" />
    <glyph glyph-name="quotesingle" unicode="'" horiz-adv-x="250" 
d="M180 617v134.998h-121v-127h62c0 -24 -5 -44 -15 -60c-10 -15.333 -25.667 -24.666 -47 -27.999v-47c36 6.66699 65.333 21.334 88 44.001c22 21.333 33 49 33 83z" />
    <glyph glyph-name="parenleft" unicode="(" horiz-adv-x="328" 
d="M300 -189c-38.667 72 -65.3311 145.666 -79.998 220.999c-8.66699 44 -14.334 82.667 -17.001 116c-3.33301 38.667 -5 76.334 -5 113.001c0 76.667 3 142.334 9 197.001l11 82l18 79c6.66699 21.333 10.667 35 12 41l14 37l34 73h-82
c-48.667 -61.333 -85.334 -134.333 -110.001 -219c-12 -40.667 -21.333 -83.334 -28 -128.001c-6 -42 -9 -85 -9 -129c0 -88 12.333 -171.333 37 -250c10 -29.333 18 -50.666 24 -63.999c5.33301 -14 13 -31.667 23 -53c22 -42.667 44.667 -81.334 68 -116.001h81z" />
    <glyph glyph-name="parenright" unicode=")" horiz-adv-x="328" 
d="M264 299c0 84.667 -12.332 168 -36.999 250s-61.334 155.667 -110.001 221h-82c25.333 -44 46 -95.333 62 -154l19 -78c6 -32 9 -60.667 9 -86c5.33301 -51.333 8 -114.333 8 -189c0 -76 -7 -149.667 -21 -221c-16.667 -84 -43.667 -161 -81 -231h82
c52 76 90 153.333 114 232c12 36.667 21.333 78 28 124c6 43.333 9 87.333 9 132z" />
    <glyph glyph-name="asterisk" unicode="*" 
d="M438 582l-28 88l-115 -39v121h-90v-121l-115 39l-27 -88l113 -37l-71 -98l75 -52l70 97l70 -97l75 52l-71 98z" />
    <glyph glyph-name="plus" unicode="+" horiz-adv-x="832" 
d="M709 250v98h-243v248h-99v-248h-244v-98h244l-1 -250h100v250h243z" />
    <glyph glyph-name="comma" unicode="," horiz-adv-x="250" 
d="M188 0l-0.000976562 135h-125v-135h68c0 -23.333 -6.33301 -44.333 -19 -63c-13.333 -20 -29.666 -31 -48.999 -33v-50c40 6.66699 71 22.667 93 48c21.333 25.333 32 58 32 98z" />
    <glyph glyph-name="hyphen" unicode="-" horiz-adv-x="328" 
d="M283 225v117h-238v-117h238z" />
    <glyph glyph-name="period" unicode="." horiz-adv-x="250" 
d="M188 0v135h-125v-135h125z" />
    <glyph glyph-name="slash" unicode="/" horiz-adv-x="307" 
d="M326 770h-74l-281 -862h74z" />
    <glyph glyph-name="zero" unicode="0" 
d="M458 304l0.00292969 107c0 27.333 -0.666992 58.333 -2 93c-0.666992 21.333 -2.33398 42 -5.00098 62c-6.66699 47.333 -18 86.333 -34 117c-22 38.667 -48.667 60 -80 64l-50 7c-16 2 -43 3 -81 3c-38.667 0 -74.334 -19.333 -107.001 -58
c-26.667 -30.667 -42.667 -69.334 -48 -116.001c-5.33301 -49.333 -8 -93.666 -8 -132.999l-1 -100v-89c0 -32 3.66699 -69 11 -111c11.333 -52 30.666 -90.667 57.999 -116c34 -32 80.333 -48 139 -48c60 0 106.333 16 139 48c28 26.667 47.333 66 58 118
c0.666992 4 2 11.333 4 22c2 9.33301 3 14.333 3 15c0.666992 4.66699 1 15 1 31zM318.003 215c0 -16.667 -0.666992 -33.666 -2 -50.999c-0.666992 -12 -2.66699 -22.667 -6 -32c-10 -28 -30 -42 -60 -42c-30.667 0 -51 13.333 -61 40c-4.66699 12 -7 38 -7 78
c0 247.333 2.66699 380.666 8 399.999c10 29.333 30 44 60 44c30.667 0 50.667 -13.667 60 -41c5.33301 -16 8 -42.333 8 -79v-317z" />
    <glyph glyph-name="one" unicode="1" 
d="M344 0v758h-94c-10 -51.333 -34.333 -88 -73 -110c-33.333 -19.333 -77.333 -29 -132 -29v-91h166v-528h133z" />
    <glyph glyph-name="two" unicode="2" 
d="M461 552c0 68 -18 119.332 -54 153.999c-36.667 34.667 -81.334 52 -134.001 52c-50.667 0 -92 -5.66699 -124 -17c-35.333 -14 -58.666 -35 -69.999 -63s-19.333 -54.333 -24 -79c-5.33301 -26.667 -8 -54.334 -8 -83.001v-10h131c0 48 2 79.333 6 94
c10 36.667 29.667 55 59 55c30 0 51 -10.667 63 -32c5.33301 -9.33301 9 -18.666 11 -27.999c2 -8.66699 3 -19 3 -31c0 -22.667 -2 -42 -6 -58s-10 -30 -18 -42l-33 -42l-38 -39l-36 -35l-31 -35c-10 -10 -16.333 -17 -19 -21l-15 -21l-27 -41
c-20 -32.667 -32.333 -59.667 -37 -81l-11 -53l-3 -36l-3 -60h408v119h-265c4.66699 14.667 10 27.334 16 38.001l25 38l24 33l30 35l60 62l32 35l30 33c18.667 22 33 46 43 72c10 25.333 15 54.333 15 87z" />
    <glyph glyph-name="three" unicode="3" 
d="M462 217c0 45.333 -6.66992 83.999 -20.0029 115.999c-16.667 38.667 -45 63 -85 73c28.667 10 51.667 30.667 69 62c14 28 21 65.667 21 113c0 48 -18 89.333 -54 124c-36 35.333 -102.333 53 -199 53c-97.333 0 -146 -34 -146 -102v-113l1 -10h129
c0 30 1.66699 55 5 75c8 31.333 24.333 47 49 47l29 2c16 0 29.333 -11 40 -33c7.33301 -16 11 -42 11 -78s-10.667 -61.667 -32 -77c-18.667 -13.333 -50.667 -20 -96 -20v-97l23 2h46c22.667 0 41.334 -11.333 56.001 -34c10 -18 15 -47 15 -87
c0 -38 -3.66699 -69 -11 -93c-12.667 -32 -35 -48 -67 -48c-34.667 0 -57 20.333 -67 61c-4.66699 14.667 -7 40.334 -7 77.001v24h-131c0 -25.333 0.666992 -51.333 2 -78c0.666992 -20.667 2.66699 -38 6 -52c6.66699 -29.333 18.334 -54.333 35.001 -75
c20 -24 50.667 -41.667 92 -53l15 -4l21 -3c11.333 -2 29 -3 53 -3h12h15c40.667 0 79.334 20.333 116.001 61c36 40 54 96.667 54 170z" />
    <glyph glyph-name="four" unicode="4" 
d="M463 149v114h-63v479h-142l-223 -472v-122h236v-148h129v148zM275 258l-140 1l140 305v-306z" />
    <glyph glyph-name="five" unicode="5" 
d="M457 269c0 56 -6.33105 100.667 -18.998 134c-10 28.667 -25 50.334 -45 65.001c-20.667 15.333 -41.334 27 -62.001 35s-42 12 -64 12l-33 -3l-30 -9c-10 -4 -24 -14 -42 -30l8 150h252v119h-356l-19 -392l121 2c0 18 8.33301 32.333 25 43
c17.333 10 30.666 15 39.999 15l24 -2l11 -5c20 -10.667 34.333 -30.334 43 -59.001l3 -10l4 -16c0.666992 -4.66699 1 -15 1 -31l-2 -54l-3 -45l-2 -28l-3 -21c-6 -22.667 -14.333 -36 -25 -40l-21 -8c-6 -2.66699 -19.667 -4 -41 -4c-18.667 0 -33.667 19 -45 57
c-4.66699 14 -7 46 -7 96h-131c0 -52.667 5.33301 -97 16 -133c10 -37.333 30 -67 60 -89c29.333 -22 71.333 -33 126 -33c56 0 101 13 135 39c32 23.333 53.333 55.333 64 96c11.333 41.333 17 91 17 149z" />
    <glyph glyph-name="six" unicode="6" 
d="M458 241c0 49.333 -2.99902 89.999 -8.99902 121.999c-10 45.333 -25.667 79.333 -47 102c-26.667 28.667 -57.667 43 -93 43c-36 0 -63 -4.33301 -81 -13c-19.333 -10 -34.666 -22.667 -45.999 -38l-1 33l-1 58c0 22.667 4 43.334 12 62.001c14 30 33.333 45 58 45
c25.333 0 42.666 -6.66699 51.999 -20c7.33301 -11.333 11 -27 11 -47h128c0 57.333 -17.667 100.666 -53 129.999c-30.667 26.667 -71.334 40 -122.001 40c-49.333 0 -90.333 -9.33301 -123 -28c-34 -19.333 -57 -45.666 -69 -78.999l-2 -6
c-6 -16.667 -9.66699 -29.334 -11 -38.001c-3.33301 -17.333 -6.33301 -34 -9 -50l-6 -41c-1.33301 -10.667 -2 -23.667 -2 -39l-1 -104l2 -122l3 -47l8 -49c7.33301 -38 17.333 -67.333 30 -88c10.667 -15.333 20.667 -27.666 30 -36.999l16 -14l22 -14
c8.66699 -6 21 -10 37 -12c11.333 -3.33301 30 -5 56 -5h12h14h17c50 0 92 25 126 75c28 42 42 102.333 42 181zM318.001 208.999c0 -32 -3.33398 -56.999 -10.001 -74.999c-10.667 -26 -30 -39 -58 -39c-29.333 0 -49 16 -59 48c-6 20 -9 48.333 -9 85
c0 60.667 4 101 12 121c12 31.333 32 47 60 47c28.667 0 47.334 -14 56.001 -42l3 -9c2 -9.33301 3.33301 -15.333 4 -18c0.666992 -4.66699 1 -19.334 1 -44.001v-74z" />
    <glyph glyph-name="seven" unicode="7" 
d="M457 635l-0.00195312 107h-416v-123h281c-34 -66 -64 -131 -90 -195c-13.333 -31.333 -27 -68 -41 -110c-11.333 -34.667 -21 -69 -29 -103c-19.333 -78 -29 -148.333 -29 -211h144c0 8.66699 0.666992 23 2 43v3c0.666992 10 2.33398 26.333 5.00098 49l20 113l27 113
l30 97c12.667 39.333 27.334 76 44.001 110l26 56z" />
    <glyph glyph-name="eight" unicode="8" 
d="M455 217c0 52.667 -6.33301 92 -19 118c-18 37.333 -48.667 61 -92 71c36.667 16 62 37 76 63s21 64 21 114s-16.667 91.667 -50 125c-32.667 32.667 -79.667 49 -141 49s-108 -16.333 -140 -49c-32.667 -32.667 -49 -74 -49 -124s7.33301 -88.333 22 -115
c14 -28 37.667 -49 71 -63c-44.667 -12 -75 -37 -91 -75c-12 -28.667 -18 -74 -18 -136s15.333 -111.333 46 -148c33.333 -39.333 86.333 -59 159 -59c71.333 0 124.333 20.333 159 61c30.667 36.667 46 92.667 46 168zM313 555c0 -24.667 -3.66699 -47.001 -11 -67.001
c-10.667 -22 -28.334 -33 -53.001 -33c-25.333 0 -42.666 11.667 -51.999 35c-5.33301 14 -8 36 -8 66c0 26 2.66699 48 8 66c8.66699 22.667 26 34 52 34c25.333 0 43.333 -10.333 54 -31c6.66699 -13.333 10 -36.666 10 -69.999zM318 224.999c0 -36 -2.66699 -64 -8 -84
c-10 -30.667 -30 -46 -60 -46c-30.667 0 -51 15.333 -61 46c-4.66699 14 -7 41.667 -7 83c0 35.333 2.66699 63.666 8 84.999c8.66699 32.667 28.667 49 60 49c30.667 0 51 -15 61 -45c4.66699 -13.333 7 -42.666 7 -87.999z" />
    <glyph glyph-name="nine" unicode="9" 
d="M454 451c0 62 -3.99805 111.333 -11.998 148c-1.33301 8 -3.66602 17.667 -6.99902 29l-3 9c-4 11.333 -8.33301 20.666 -13 27.999c-8.66699 18 -20.667 33.667 -36 47c-32.667 30.667 -67.334 46 -104.001 46c-26 0 -42.333 -0.333008 -49 -1h-3
c-12.667 -1.33301 -23 -2.66602 -31 -3.99902c-12.667 -2.66699 -23.667 -5.66699 -33 -9c-38.667 -14 -67 -35.333 -85 -64s-29 -62.667 -33 -102c-2.66699 -14 -4 -29.667 -4 -47l-1 -60c0 -45.333 4.33301 -84 13 -116c12 -38.667 29 -67 51 -85
c27.333 -23.333 57.333 -35 90 -35c32 0 58.333 4.66699 79 14c20 8 35 20 45 36l1 -13v-40l-3 -62c-4.66699 -46.667 -13.334 -71.667 -26.001 -75l-29 -6l-28 -1c-12.667 0 -23.334 6.33301 -32.001 19s-13 29 -13 49h-131c0 -58.667 16.667 -102.667 50 -132
c32 -26 73.333 -39 124 -39c52 0 94.333 9 127 27c40 22 64 51 72 87l13 60l6 39v3c1.33301 9.33301 2 15 2 17v16l2 99zM317.002 531l-1 -77l-4 -40l-11 -34c-6 -12.667 -13 -21 -21 -25c-7.33301 -4.66699 -22 -7 -44 -7c-21.333 0 -37 13.333 -47 40
c-6 17.333 -9 43 -9 77c0 74.667 3 121 9 139c12 29.333 31.333 44 58 44c30 0 50 -15 60 -45c6.66699 -18 10 -42 10 -72z" />
    <glyph glyph-name="colon" unicode=":" horiz-adv-x="273" 
d="M199 422v136h-125v-136h125zM199 0v135h-125v-135h125z" />
    <glyph glyph-name="semicolon" unicode=";" horiz-adv-x="273" 
d="M199 422v136h-125v-136h125zM199 -8l-0.000976562 143.002h-125v-135h67l1 -23c0 -10.667 -6.33301 -25.334 -19 -44.001c-13.333 -19.333 -29.666 -29 -48.999 -29v-50c18 0 34 4 48 12c18 9.33301 32 20 42 32c23.333 27.333 35 58.666 35 93.999z" />
    <glyph glyph-name="less" unicode="&#x3c;" horiz-adv-x="832" 
d="M703 14v105l-435 180l435 178v105l-574 -234v-98z" />
    <glyph glyph-name="equal" unicode="=" horiz-adv-x="832" 
d="M709 355v96h-586v-96h586zM709 145v97h-586v-97h586z" />
    <glyph glyph-name="greater" unicode="&#x3e;" horiz-adv-x="832" 
d="M703 250v98l-574 234v-105l437 -178l-437 -180v-105z" />
    <glyph glyph-name="question" unicode="?" horiz-adv-x="490" 
d="M440 577c0 60 -18.332 107.334 -54.999 142.001c-36.667 34 -79.334 51 -128.001 51c-48 0 -86.333 -7.33301 -115 -22c-29.333 -15.333 -52 -38.333 -68 -69c-6 -12.667 -9.66699 -21.667 -11 -27c-2.66699 -6 -5 -16.667 -7 -32c-2 -14 -3 -37 -3 -69h123v8
c0 29.333 3 51.333 9 66c10 27.333 27 41 51 41c25.333 0 43.333 -9 54 -27c8.66699 -14.667 13 -35.334 13 -62.001c0 -28 -9.33301 -56.667 -28 -86l-59 -76c-24.667 -32 -41.667 -61 -51 -87l-8 -25l-2 -18l-3 -44l-1 -29l1 -11h119l2 44l2 18l5 20
c8.66699 26 27 56.333 55 91c42.667 49.333 66 78 70 86c23.333 37.333 35 76.333 35 117zM275.001 0.000976562v131h-125v-131h125z" />
    <glyph glyph-name="at" unicode="@" horiz-adv-x="1000" 
d="M955 383c0 72 -19.6689 133.667 -59.002 185c-40 51.333 -91.667 90 -155 116c-62.667 26 -145 39 -247 39c-104 0 -204 -43 -300 -129c-100 -90 -150 -199.667 -150 -329c0 -130.667 45.667 -233.667 137 -309c84.667 -70.667 163.334 -106 236.001 -106l92 1l56 3l66 8
c36 6 71.333 18 106 36c36 19.333 70.333 41 103 65l-39 57c-40 -30 -87 -53 -141 -69c-54 -16.667 -120.667 -25 -200 -25c-76.667 0 -149.334 28.333 -218.001 85c-72.667 60.667 -109 124 -109 190s4.33301 116.333 13 151c10.667 34.667 22.667 65 36 91
c34.667 66 87.334 116.333 158.001 151c64.667 32.667 124.667 49 180 49c54 0 98.333 -5 133 -15l44 -15l48 -22c37.333 -20 67 -51 89 -93s33 -85.333 33 -130c0 -46 -11.333 -90.333 -34 -133c-23.333 -44 -55 -74.667 -95 -92l-24 -8c-8.66699 -2 -20.334 -3 -35.001 -3
c-15.333 0 -23 6.33301 -23 19l1 26l1 9l72 293h-85l-28 -50c-26.667 42.667 -70 64 -130 64s-112.667 -29 -158 -87c-40.667 -52.667 -61 -110.334 -61 -173.001c0 -63.333 13.333 -109 40 -137c26 -28.667 59 -43 99 -43c40.667 0 73.334 7.33301 98.001 22
c24 14.667 45.667 34 65 58l7 -25l8 -22c8 -10.667 21.667 -19.667 41 -27c10.667 -3.33301 20 -5.66602 28 -6.99902c4.66699 -0.666992 15 -1 31 -1c13.333 0 25 1.33301 35 4c10 2 22.667 6 38 12c20.667 8.66699 45.334 22.334 74.001 41.001
c40 25.333 70.667 64.666 92 117.999c20.667 52 31 104.333 31 157zM593.998 342l-20.999 -91.001c-13.333 -42 -27 -71 -41 -87c-22 -26.667 -47.667 -40 -77 -40c-30.667 0 -52.334 9.33301 -65.001 28c-12 20 -18 47.667 -18 83c0 36.667 11.333 75.334 34 116.001
c28 48 57.667 72 89 72c32.667 0 56.667 -7.66699 72 -23c14 -14.667 23 -34 27 -58z" />
    <glyph glyph-name="A" unicode="A" horiz-adv-x="547" 
d="M537 0l-172 752h-187l-168 -752h142l36 189h162l37 -189h150zM328 304h-117l59 313z" />
    <glyph glyph-name="B" unicode="B" horiz-adv-x="545" 
d="M499 229c0 44 -8 81 -24 111c-18.667 36 -48 57.333 -88 64c34.667 8 59.334 28.333 74.001 61c12.667 24.667 19 48.667 19 72l-1 41v14c0 54 -18.667 95 -56 123c-30.667 24.667 -75.334 37 -134.001 37h-225v-752c203.333 0 322.333 11 357 33c40.667 26 64 62 70 108
l6 49zM340 555c0 -44 -9 -73.667 -27 -89c-14.667 -12.667 -44.667 -19 -90 -19h-24v203c62.667 0 101.667 -6.33301 117 -19c16 -12.667 24 -38 24 -76zM356 235c0 -50 -7.33203 -83.334 -21.999 -100.001c-15.333 -19.333 -38.333 -29 -69 -29l-66 1v239h22
c28 0 48 -1 60 -3c27.333 -6 45.666 -15.667 54.999 -29c13.333 -17.333 20 -43.666 20 -78.999z" />
    <glyph glyph-name="C" unicode="C" horiz-adv-x="549" 
d="M498 268l-134.998 -0.000976562c0 -41.333 -2 -72.666 -6 -93.999c-8 -42 -22.667 -66 -44 -72l-20 -3l-24 -2c-8.66699 0.666992 -19.667 3 -33 7c-10.667 4.66699 -18.667 13 -24 25c-6 13.333 -10.333 26.333 -13 39c-0.666992 1.33301 -1.33398 4 -2.00098 8
c0 2.66699 -0.666992 6.33398 -2 11.001v34l-2 54l-2 76l1 133c0 22 1 42 3 60c2 20.667 4.33301 35.334 7 44.001c12.667 46.667 37 70 73 70c35.333 0 59.666 -15.667 72.999 -47c8 -20 12 -44 12 -72l-1 -19h137c0 55.333 -9.66699 106 -29 152
c-26 53.333 -63.667 84 -113 92l-41 6l-80 2c-38 0 -75.333 -18.333 -112 -55c-30 -32 -50.333 -77 -61 -135c-8 -42 -12 -88.667 -12 -140l1 -123c0 -10.667 0.333008 -19.667 1 -27c0 -14.667 1.33301 -31.334 4 -50.001l7 -59l7 -50c8.66699 -50.667 33 -89 73 -115
c37.333 -23.333 84 -35 140 -35c58 0 103.667 12.333 137 37c30 21.333 51.667 54.666 65 99.999c10 38 15 87.333 15 148z" />
    <glyph glyph-name="D" unicode="D" horiz-adv-x="588" 
d="M540 392l-0.000976562 47c0 41.333 -3.33301 81.666 -10 120.999c-7.33301 40.667 -18.666 74.667 -33.999 102c-22 36 -49.667 60 -83 72c-8 3.33301 -13 5.33301 -15 6c-1.33301 0.666992 -3.66602 1 -6.99902 1c-2.66699 0.666992 -4.66699 1 -6 1
c-6 2.66699 -14 4.33398 -24 5.00098l-29 5h-43h-225v-752c51.333 0 109 0.666992 173 2c21.333 0.666992 41 1 59 1c29.333 0.666992 48.666 1 57.999 1c30.667 4 53 9.33301 67 16c34.667 14.667 61 41 79 79c15.333 30 25 67.667 29 113c3.33301 14.667 5 30 5 46l3 68z
M395.999 353c0 -17.333 -0.666016 -38.668 -1.99902 -64.001c-0.666992 -14.667 -2.33398 -32.334 -5.00098 -53.001c-6.66699 -54 -19 -89 -37 -105c-8.66699 -8.66699 -23.667 -14.667 -45 -18l-17 -4h-21l-35 1l-33 1v532l11 1c30 0 49.333 -0.333008 58 -1h3
c15.333 -1.33301 28.333 -2.66602 39 -3.99902c16 -3.33301 27.333 -7.33301 34 -12c20.667 -14.667 35 -46 43 -94c4.66699 -23.333 7 -59.666 7 -108.999v-71z" />
    <glyph glyph-name="E" unicode="E" horiz-adv-x="494" 
d="M455 0v127h-252v207h231v119h-231v174h246v125h-385v-752h391z" />
    <glyph glyph-name="F" unicode="F" horiz-adv-x="488" 
d="M457 629v123h-393v-752h139v330h240v121h-240v178h254z" />
    <glyph glyph-name="G" unicode="G" horiz-adv-x="590" 
d="M529 0l-0.000976562 409.999h-230v-121h97c0 -82.667 -9.66699 -136.667 -29 -162c-18 -20 -45.667 -30 -83 -30c-39.333 0 -66 28.333 -80 85c-7.33301 28 -11 74.333 -11 139l1 103l2 97l3 39l9 37c7.33301 23.333 18.333 39.333 33 48s37.667 13 69 13
c29.333 0 52.333 -15.333 69 -46c12.667 -22.667 19 -54.667 19 -96h131l-3 57l-6 41c-9.33301 39.333 -21.666 69 -36.999 89c-21.333 27.333 -48 45 -80 53c-14 4.66699 -24.667 7 -32 7l-27 5l-29 3h-26c-24 0 -49.667 -3 -77 -9c-28 -6 -49.667 -15.333 -65 -28
c-33.333 -28.667 -57.333 -61 -72 -97c-7.33301 -18.667 -12.333 -34.667 -15 -48c-2 -8 -3.66699 -19.333 -5 -34v-2c-0.666992 -7.33301 -1 -19 -1 -35l-3 -53l-1 -122c0 -63.333 3 -114.666 9 -153.999c10 -62.667 29 -111 57 -145c35.333 -41.333 79 -62 131 -62
c53.333 0 92.333 8 117 24c25.333 16 46 41.667 62 77l11 -83h92z" />
    <glyph glyph-name="H" unicode="H" horiz-adv-x="598" 
d="M533 0v752h-138v-295h-192v295h-139v-752h139v342h192v-342h138z" />
    <glyph glyph-name="I" unicode="I" horiz-adv-x="268" 
d="M203 0v752h-139v-752h139z" />
    <glyph glyph-name="J" unicode="J" horiz-adv-x="441" 
d="M374 201l-1.00293 550.999h-137l-1 -582l-1 -44l-5 -12l-8 -11c-8.66699 -8.66699 -20.667 -13 -36 -13c-16 0 -28.667 8 -38 24c-5.33301 10.667 -8 26 -8 46v7l2 71h-129v-35l-1 -75c0 -34 14.333 -66.667 43 -98c29.333 -32 63.333 -48 102 -48
c36.667 0 64.334 1.66699 83.001 5c12 2 24.667 5.33301 38 10c2 0.666992 3.66699 1.33398 5 2.00098c8.66699 2.66699 14.334 4.66699 17.001 6c24 12.667 42.333 29.667 55 51c6.66699 12 11.334 23 14.001 33s4 22 4 36z" />
    <glyph glyph-name="K" unicode="K" horiz-adv-x="547" 
d="M539 0l-201 439l189 313h-156l-170 -314v314h-137v-752h135v229l53 82l135 -311h152z" />
    <glyph glyph-name="L" unicode="L" horiz-adv-x="488" 
d="M457 0v129h-254v623h-139v-752h393z" />
    <glyph glyph-name="M" unicode="M" horiz-adv-x="756" 
d="M691 0v752h-211l-101 -486l-104 486h-211v-752h133l-2 668l141 -668h86l139 668l-2 -668h132z" />
    <glyph glyph-name="N" unicode="N" horiz-adv-x="596" 
d="M531 0v752h-131l4 -525l-197 525h-143v-752h131l-4 527l198 -527h142z" />
    <glyph glyph-name="O" unicode="O" horiz-adv-x="588" 
d="M538 290v105v6c-1.33301 10.667 -2 18 -2 22v25l-1 60v23c0 0.666992 -0.333008 2.66699 -1 6c-0.666992 9.33301 -2 18.333 -4 27l-15 55c-15.333 40 -34 72 -56 96c-8 9.33301 -14 15.333 -18 18l-3 3l-16 11c-12.667 8.66699 -27 14 -43 16l-47 6l-88 2
c-44.667 0 -86 -21 -124 -63c-30.667 -32.667 -51 -82.667 -61 -150c-6.66699 -35.333 -10 -96.666 -10 -183.999c0 -82 3 -142.667 9 -182c10 -67.333 31 -117 63 -149c38.667 -40.667 92.667 -61 162 -61c68.667 0 121.667 13.667 159 41c36 27.333 61 63.666 75 108.999
s21 98 21 158zM396 292l-2.00391 -53c0 -5.33301 -0.666992 -12.666 -2 -21.999c0 -2.66699 -1 -7.66699 -3 -15l-2 -12c-7.33301 -36 -18.666 -61.667 -33.999 -77c-5.33301 -6.66699 -13.333 -11 -24 -13c-10 -3.33301 -19.333 -5 -28 -5h-25
c-23.333 0 -43.666 15.667 -60.999 47c-8 14 -14 29.333 -18 46c-4 16 -6 33.667 -6 53v98c0 22 0.666992 59.333 2 112v9c0.666992 24 1.33398 42.667 2.00098 56v17c4 36.667 8.33301 59 13 67c10.667 21.333 22.667 36.666 36 45.999c12.667 8.66699 33.334 13 62.001 13
c28 0 50.667 -18.667 68 -56c7.33301 -17.333 13 -35 17 -53c3.33301 -22 5 -44 5 -66v-108v-84z" />
    <glyph glyph-name="P" unicode="P" horiz-adv-x="545" 
d="M516 543c0 72.667 -16.667 125.667 -50 159s-86.333 50 -159 50h-243v-752h139v318h44h39l65 3l28 4l28 10l47 30c22.667 18.667 39 46 49 82c8.66699 26.667 13 58.667 13 96zM377 537c0 -44 -10.667 -74.667 -32 -92c-16.667 -14.667 -40 -22 -70 -22h-4l-72 1v222
l14 1c73.333 0 119.333 -7.66699 138 -23c17.333 -16 26 -45 26 -87z" />
    <glyph glyph-name="Q" unicode="Q" horiz-adv-x="588" 
d="M575 -6l-84 81.998c8.66699 13.333 15 26.333 19 39l13 40c6 26 9 51.333 9 76l4 82l3 53l1 66c0 30.667 -3 69.334 -9 116.001c-7.33301 48 -19.666 89 -36.999 123c-23.333 44 -55.333 72.333 -96 85c-34 10 -78.333 15 -133 15s-101.667 -19.667 -141 -59
c-32.667 -32 -54.334 -80.667 -65.001 -146c-6.66699 -35.333 -10 -97.666 -10 -186.999c0 -84.667 3 -145.667 9 -183c8.66699 -64.667 29 -115 61 -151c39.333 -42 82 -63 128 -63c45.333 0 81.333 2.66699 108 8c24 4.66699 45 10.667 63 18l86 -86zM396 389.998
l-2 -105.999l-2 -43l-7 -59l-30 31l-70 -72l41 -41l-16 -2l-37 -3c-14.667 0 -29.667 7.66699 -45 23s-24.333 35.666 -27 60.999l-8 45l-1 36l-2 85v48v53c0 12.667 0.666992 30.334 2 53.001c0.666992 11.333 2.33398 28.333 5.00098 51c6 33.333 15 59 27 77
c7.33301 11.333 17 19.666 29 24.999c11.333 4 30.333 6 57 6c28.667 0 50 -15.333 64 -46c6.66699 -12 11 -25.667 13 -41c1.33301 -4.66699 2.66602 -13 3.99902 -25c0.666992 -6 1 -16 1 -30l2 -57z" />
    <glyph glyph-name="R" unicode="R" horiz-adv-x="576" 
d="M568 0l-17.002 21.998c-6 8 -10.333 16.333 -13 25l-7 27c-1.33301 9.33301 -2 20 -2 32l-2 96l-4 89c-4 22.667 -13 42.334 -27 59.001c-13.333 16 -37.333 29.667 -72 41c34.667 8 60.667 24.667 78 50c16.667 24.667 25 69.334 25 134.001
c0 65.333 -21 112.333 -63 141c-36 24 -86 36 -150 36h-250v-752h135v330l15 1h35l45 -2c28.667 -4 49.334 -10.667 62.001 -20c14.667 -9.33301 24.334 -27.333 29.001 -54c2 -6.66699 3 -16.667 3 -30l1 -53c0 -2 0.333008 -6 1 -12l1 -4v-15v-19l1 -55l2 -32l8 -35h166z
M388.998 538.998c0 -38.667 -9.33398 -65.999 -28.001 -81.999c-18.667 -16.667 -40 -25 -64 -25l-65 1l-33 1v212h19l19 1c64.667 0 105.334 -7.33301 122.001 -22c20 -16.667 30 -45.334 30 -86.001z" />
    <glyph glyph-name="S" unicode="S" horiz-adv-x="549" 
d="M498 215c0 59.333 -26.6641 113 -79.9971 161c-2.66699 3.33301 -51.667 37.666 -147 102.999c-52.667 36.667 -79 69 -79 97s6.33301 48.333 19 61s29.667 19 51 19c18.667 0 36 -3.66699 52 -11c14.667 -9.33301 24 -22 28 -38l5 -14c1.33301 -5.33301 2 -13 2 -23
l1 -35v-14h132c0 64 -6 111.333 -18 142c-12.667 31.333 -36.334 56.666 -71.001 75.999c-19.333 12.667 -39.333 21 -60 25c-16.667 4.66699 -49 7 -97 7c-22.667 0 -44.334 -4.66699 -65.001 -14s-40.334 -23.333 -59.001 -42c-37.333 -37.333 -56 -76 -56 -116
c0 -39.333 2 -68.666 6 -87.999c3.33301 -19.333 9.33301 -35 18 -47c7.33301 -10.667 16.333 -22 27 -34c8.66699 -9.33301 20.667 -20.666 36 -33.999l79 -58l79 -55l27 -21c10 -8 16.667 -16.667 20 -26c4.66699 -6.66699 7 -14.667 7 -24l1 -44
c0 -11.333 -1.33301 -20 -4 -26l-1 -3c-2.66699 -6 -4.66699 -10 -6 -12c-0.666992 -1.33301 -2 -3.33301 -4 -6l-5 -5c-14 -13.333 -35 -20 -63 -20c-28.667 0 -49.667 6 -63 18c-13.333 16.667 -20 35.334 -20 56.001l-1 66v28h-138l-1 -27v-76
c0 -42.667 18.667 -83.334 56 -122.001c37.333 -38 93.333 -57 168 -57c76 0 132.667 19.667 170 59c36 39.333 54 97.333 54 174z" />
    <glyph glyph-name="T" unicode="T" horiz-adv-x="482" 
d="M473 629v123h-463v-123h162v-629h139v629h162z" />
    <glyph glyph-name="U" unicode="U" horiz-adv-x="599" 
d="M534 232l0.000976562 520h-137c0 -387.333 -4.33301 -590 -13 -608c-14 -31.333 -41.667 -47 -83 -47c-42 0 -70 15 -84 45c-8.66699 16.667 -13 50.667 -13 102v508h-140l2 -573l4 -46c10 -54.667 37 -94 81 -118c39.333 -22 81.666 -33 126.999 -33
c47.333 0 84.333 3 111 9c38 10 64.667 23.333 80 40c15.333 15.333 27.333 30 36 44c11.333 18 18 34.667 20 50l4 23l3 27z" />
    <glyph glyph-name="V" unicode="V" horiz-adv-x="547" 
d="M523 752h-146l-102 -600l-113 600h-148l168 -752h183z" />
    <glyph glyph-name="W" unicode="W" horiz-adv-x="818" 
d="M801 752h-145l-80 -580l-107 580h-115l-98 -570l-94 570h-144l146 -752h166l80 475l88 -475h166z" />
    <glyph glyph-name="X" unicode="X" horiz-adv-x="549" 
d="M539 0l-185 385l179 367h-154l-104 -236l-99 236h-158l175 -367l-183 -385h150l111 252l110 -252h158z" />
    <glyph glyph-name="Y" unicode="Y" horiz-adv-x="551" 
d="M541 752h-150l-114 -283l-113 283h-154l195 -434v-318h143v318z" />
    <glyph glyph-name="Z" unicode="Z" horiz-adv-x="484" 
d="M453 0v127h-271l261 510v115h-400v-117h252l-266 -508v-127h424z" />
    <glyph glyph-name="bracketleft" unicode="[" horiz-adv-x="328" 
d="M279 -203v84h-78v789h78v82h-201v-955h201z" />
    <glyph glyph-name="backslash" unicode="\" horiz-adv-x="307" 
d="M326 -92l-281 862h-74l281 -862h74z" />
    <glyph glyph-name="bracketright" unicode="]" horiz-adv-x="328" 
d="M237 -203v955h-200v-82h80v-789h-80v-84h200z" />
    <glyph glyph-name="asciicircum" unicode="^" horiz-adv-x="1000" 
d="M797 439l-236 274h-123l-235 -274h115l182 180l182 -180h115z" />
    <glyph glyph-name="underscore" unicode="_" 
d="M500 -234v99h-500v-99h500z" />
    <glyph glyph-name="grave" unicode="`" 
d="M318 625l-84 139h-125l149 -139h60z" />
    <glyph glyph-name="a" unicode="a" horiz-adv-x="484" 
d="M451 0c-12.667 24.667 -18.9971 51.3301 -18.9971 79.9971c0 280.667 -14.333 434.334 -43 461.001c-28.667 26 -76.334 39 -143.001 39c-64.667 0 -113.334 -14.667 -146.001 -44s-49 -74.666 -49 -135.999v-4h127l4 37l9 26c11.333 18 27 27 47 27
c21.333 0 38 -4 50 -12c11.333 -9.33301 17 -25.666 17 -48.999c0 -24 -22.667 -46.667 -68 -68c-76 -36 -118 -57 -126 -63c-44.667 -32.667 -67 -76.667 -67 -132c0 -54.667 11.667 -97.667 35 -129c23.333 -32 52.666 -48 87.999 -48c36 0 65.333 6.33301 88 19
c22 12.667 40.667 29.667 56 51l3 -28l10 -27h127zM308.003 231.996c0 -34 -3.66602 -64 -10.999 -90c-12 -37.333 -29.667 -56 -53 -56s-40 6.33301 -50 19c-10 13.333 -15 31 -15 53s6.33301 42.333 19 61c13.333 18.667 29.666 33.667 48.999 45l60 33l1 -6v-7v-52z" />
    <glyph glyph-name="b" unicode="b" horiz-adv-x="486" 
d="M445 279l-3 99c0 25.333 -1.33301 43.666 -4 54.999c-2.66699 10.667 -4 16.334 -4 17.001c-2.66699 10 -4 15.667 -4 17c-1.33301 6 -4 15 -8 27c-14 38.667 -32.667 62.667 -56 72l-35 11c-8.66699 2.66699 -22.667 4 -42 4c-17.333 0 -36 -6 -56 -18s-35 -27 -45 -45
v234h-131v-752h125v60c24 -50 60.667 -75 110 -75c51.333 0 88.333 17.333 111 52c20 30 32 64.667 36 104s6 85.333 6 138zM314 295l-1 -33v-27v-31c0 -72.667 -15 -109 -45 -109c-26 0 -44.667 3 -56 9c-10 8 -16 16.333 -18 25l-5 27l-2 23l-3 67
c0 91.333 2.66699 148.333 8 171c10 36 29 54 57 54c29.333 0 48.333 -17 57 -51c5.33301 -20 8 -47.667 8 -83v-42z" />
    <glyph glyph-name="c" unicode="c" horiz-adv-x="453" 
d="M412 223h-123.001l1 -15v-32c0 -6 -0.666992 -14.333 -2 -25l-3 -18l-2 -10c-4 -19.333 -10 -30 -18 -32l-20 -5l-29 -2c-14 0 -25 13 -33 39c-4.66699 12 -7 34 -7 66c0 156.667 2.66699 243 8 259c8.66699 20.667 25 31 49 31s40 -13.333 48 -40c4 -14.667 6 -38 6 -70
h125c0 70.667 -12.333 122.334 -37 155.001c-29.333 37.333 -74.333 56 -135 56c-61.333 0 -107 -13 -137 -39c-26.667 -22.667 -44 -54 -52 -94c-8 -38.667 -12 -72 -12 -100l1 -65l1 -34l4 -81c2.66699 -26.667 7.66699 -50 15 -70
c10.667 -26.667 24.334 -50.334 41.001 -71.001c12.667 -16 30.334 -26.667 53.001 -32s54 -8 94 -8c39.333 0 72.666 9.66699 99.999 29c26.667 20.667 44 48 52 82s12 76 12 126z" />
    <glyph glyph-name="d" unicode="d" horiz-adv-x="486" 
d="M431 0v751.999h-132v-234c-12.667 22 -28.334 37.333 -47.001 46c-18.667 10.667 -45.334 16 -80.001 16s-64 -16 -88 -48c-19.333 -26.667 -32 -63 -38 -109c-1.33301 -10 -2.66602 -24.333 -3.99902 -43v-3c-0.666992 -10 -1 -25.333 -1 -46v-83l2 -48
c0 -2 2 -17 6 -45c2 -15.333 4.33301 -30 7 -44l1 -9c8.66699 -35.333 22 -62.666 40 -81.999c21.333 -23.333 55.333 -35 102 -35s82.334 25 107.001 75v-60h125zM304 270.999l-2.00293 -66l-2 -30l-5 -33c-6 -31.333 -21 -47 -45 -47c-23.333 0 -39.666 3 -48.999 9
c-7.33301 7.33301 -12.666 19 -15.999 35c-4.66699 18 -7.66699 32.667 -9 44c-1.33301 14.667 -2 27 -2 37l-1 106c0 46.667 3.33301 79.667 10 99c12 29.333 30 44 54 44c25.333 0 43 -14.333 53 -43c4.66699 -10.667 7.66699 -21 9 -31
c0.666992 -6 2.33398 -16.333 5.00098 -31v-25v-68z" />
    <glyph glyph-name="e" unicode="e" horiz-adv-x="478" 
d="M435 264c0 50 -0.333008 81.6689 -1 95.002c-0.666992 19.333 -1.66699 35.333 -3 48l-11 53c-4.66699 16 -10.667 30 -18 42c-17.333 31.333 -41.333 53 -72 65c-14.667 5.33301 -29.334 9 -44.001 11l-78 2c-34.667 0 -67.667 -11.667 -99 -35
c-26 -20.667 -44.333 -50.667 -55 -90c-8 -32.667 -12 -82.334 -12 -149.001l1 -87l3 -51c6.66699 -56.667 22.334 -99.334 47.001 -128.001c32 -36 81.667 -54 149 -54s116.333 17.333 147 52c28 32 42 83.667 42 155h-123c0 -29.333 -4.33301 -53 -13 -71
c-10.667 -26 -29.334 -39 -56.001 -39c-26 0 -44.667 16 -56 48c-3.33301 11.333 -5.66602 21.333 -6.99902 30c-0.666992 4 -1 13.667 -1 29l1 46l1 28h258zM304 354.002l-128 -0.000976562v19v37c0 20 6 37.333 18 52c11.333 12 28 18 50 18c23.333 0 40 -11 50 -33
c6.66699 -13.333 10 -36.666 10 -69.999v-23z" />
    <glyph glyph-name="f" unicode="f" horiz-adv-x="275" 
d="M254 469l0.000976562 94.999h-55c0 42.667 3 68.334 9 77.001c4.66699 8.66699 20 13 46 13v98l-28 1l-53 1c-26.667 0 -49.334 -7.33301 -68.001 -22c-18 -14 -28.667 -31.667 -32 -53c-3.33301 -22 -5 -51 -5 -87v-28h-50v-95h50v-469h131v469h55z" />
    <glyph glyph-name="g" unicode="g" horiz-adv-x="486" 
d="M431 28l-0.00195312 536.004h-125v-58c-12 24 -27.667 42.333 -47 55s-47 19 -83 19c-35.333 0 -65.333 -15.333 -90 -46c-20.667 -24.667 -34 -60.667 -40 -108c-1.33301 -10.667 -2.66602 -28.334 -3.99902 -53.001c-0.666992 -14 -1 -37.333 -1 -70l1 -103
c0 -18.667 0.333008 -30.334 1 -35.001c0 -2 0.333008 -3.66699 1 -5c0.666992 -9.33301 1.66699 -17.333 3 -24l14 -53c14 -40.667 33.667 -68.667 59 -84c5.33301 -4.66699 10.333 -7.33398 15 -8.00098c1.33301 0 2.33301 -0.333008 3 -1
c5.33301 -1.33301 10.666 -2.33301 15.999 -3c12 -1.33301 26 -2 42 -2c20 0 39.333 5.33301 58 16c18 10 33 26 45 48l2 -10v-40c0 -22.667 -2.33301 -40.667 -7 -54c-10 -28 -26 -42 -48 -42c-23.333 0 -38.666 3 -45.999 9c-8 4.66699 -13 13.667 -15 27h-131
c0 -23.333 5 -43.333 15 -60c8.66699 -16.667 22.334 -30.667 41.001 -42c28.667 -17.333 63.667 -26 105 -26c18 0 37 0.666992 57 2c15.333 0.666992 29 2.66699 41 6c35.333 8.66699 59.333 22 72 40c19.333 27.333 32 53.666 38 78.999c5.33301 26.667 8 56.667 8 90z
M303.998 217.004c0 -30.667 -4 -56.002 -12 -76.002c-12 -30 -30.667 -45 -56 -45c-26.667 0 -45 15.667 -55 47c-3.33301 11.333 -5.66602 21 -6.99902 29c-0.666992 4.66699 -1 15 -1 31l1 55l1 44l1 61l4 43l9 35c4 12 9.66699 20 17 24
c2 0.666992 3.66699 1.33398 5 2.00098c6 2.66699 10.333 4.33398 13 5.00098c3.33301 0.666992 12.666 1 27.999 1c22 0 37 -17.333 45 -52c4.66699 -14 7 -42 7 -84v-120z" />
    <glyph glyph-name="h" unicode="h" horiz-adv-x="484" 
d="M430 0c0 334 -11 514.333 -33 541c-22.667 26.667 -50 40 -82 40c-30 0 -55.667 -6 -77 -18s-38 -29 -50 -51v240h-131v-752h131c0 273.333 3 417.333 9 432c8.66699 24.667 26 37 52 37c26.667 0 43 -10.333 49 -31c4.66699 -11.333 7 -31 7 -59v-379h125z" />
    <glyph glyph-name="i" unicode="i" horiz-adv-x="242" 
d="M186 635v117h-129v-117h129zM186 0v564h-129v-564h129z" />
    <glyph glyph-name="j" unicode="j" horiz-adv-x="252" 
d="M193 637v115h-129v-115h129zM193 -60v624.001h-127c0 -414 -2.66699 -624.667 -8 -632c-6 -8 -19.333 -12 -40 -12v-108l74 -1h4c30 0 53.667 9.66699 71 29s26 52.666 26 99.999z" />
    <glyph glyph-name="k" unicode="k" horiz-adv-x="432" 
d="M439 0l-142 350l141 214h-137l-117 -205v393h-127v-752h127v176l33 51l82 -227h140z" />
    <glyph glyph-name="l" unicode="l" horiz-adv-x="242" 
d="M186 0v752h-129v-752h129z" />
    <glyph glyph-name="m" unicode="m" horiz-adv-x="752" 
d="M697 0c0 52.667 -1.33301 123.999 -4 213.999s-4 148 -4 174c0 36.667 -2.66699 70.334 -8 101.001c-4.66699 26.667 -10 44 -16 52c-22.667 26.667 -52.667 40 -90 40c-36.667 0 -64.667 -6 -84 -18c-20.667 -11.333 -40.334 -29.333 -59.001 -54
c-8.66699 22 -24 39.667 -46 53c-20.667 12 -46.667 18 -78 18c-29.333 0 -53.666 -5.66699 -72.999 -17c-20 -11.333 -38.333 -32.333 -55 -63v64h-121v-564h129c0 286 6 435.333 18 448c11.333 12 28 18 50 18c24 0 40 -11 48 -33c6 -16 9 -38 9 -66v-367h128
c0 274.667 3 419 9 433c11.333 22 30 33 56 33c28 0 46.333 -11.333 55 -34c4.66699 -11.333 7 -35.333 7 -72v-360h129z" />
    <glyph glyph-name="n" unicode="n" horiz-adv-x="484" 
d="M430 0c0 335.333 -11.002 516.001 -33.002 542.001c-22.667 26 -50 39 -82 39c-31.333 0 -57.666 -7 -78.999 -21c-22 -14.667 -38.667 -32 -50 -52v56h-129v-564h131c0 267.333 2.66699 410.666 8 429.999c8 26 24 39 48 39c24.667 0 41.334 -10 50.001 -30
c7.33301 -16 11 -36 11 -60v-379h125z" />
    <glyph glyph-name="o" unicode="o" horiz-adv-x="479" 
d="M439 296c0 60 -4.00098 107.332 -12.001 141.999c-10 46.667 -29 81 -57 103c-32 26 -77 39 -135 39c-57.333 0 -101.666 -15 -132.999 -45c-26 -25.333 -43.667 -62.666 -53 -111.999c-6.66699 -31.333 -10 -79.666 -10 -144.999c0 -60.667 3 -107.667 9 -141
c10 -48 28 -84 54 -108c30.667 -28.667 76.667 -43 138 -43c62 0 108.333 15 139 45c26 25.333 43.667 63.666 53 114.999c4.66699 24 7 74 7 150zM304.999 280.999l-1 -45c0 -72 -6 -115 -18 -129s-30.667 -21 -56 -21c-26 0 -43 17 -51 51
c-2.66699 8.66699 -4 32.667 -4 72l-3 92l-1 80c0 34 7 59 21 75c13.333 15.333 33 23 59 23s42.667 -20.667 50 -62c2.66699 -8.66699 4 -29 4 -61v-13v-17v-45z" />
    <glyph glyph-name="p" unicode="p" horiz-adv-x="486" 
d="M445 252l-2 136.001c-6 58.667 -18 103 -36 133c-24.667 40.667 -55.667 61 -93 61c-18.667 0 -35.334 -1.66699 -50.001 -5c-14 -2.66699 -26 -7.66699 -36 -15c-20 -13.333 -35.333 -32 -46 -56v58h-125v-753h131v238c15.333 -24 31.333 -40.667 48 -50
c15.333 -9.33301 30.333 -14 45 -14h28l9 1c20 0 36.667 4.33301 50 13c14.667 9.33301 27.334 22.333 38.001 39c17.333 25.333 28.333 55.666 33 90.999c4 36 6 77 6 123zM314 227.001c0 -32.667 -3 -59.667 -9 -81c-11.333 -33.333 -25.666 -50 -42.999 -50
c-18 0 -32 3 -42 9c-10 4.66699 -16.667 12 -20 22c-6 18.667 -10 36.334 -12 53.001l-4 33v27c0 112.667 5.33301 179.667 16 201c11.333 21.333 28.333 32 51 32c25.333 0 42.666 -14.667 51.999 -44c4.66699 -12 7 -21.667 7 -29c1.33301 -6.66699 2 -11.334 2 -14.001
v-11l1 -59l1 -47v-42z" />
    <glyph glyph-name="q" unicode="q" horiz-adv-x="486" 
d="M431 -189l-0.00195312 753.003h-125v-58c-12 24 -27.667 42.333 -47 55s-47 19 -83 19c-35.333 0 -65.333 -15.333 -90 -46c-20.667 -24.667 -34 -60.667 -40 -108c-1.33301 -10.667 -2.66602 -28.334 -3.99902 -53.001c-0.666992 -14 -1 -37.333 -1 -70l1 -103l4 -63
c0.666992 -6 2.66699 -14 6 -24c0 -1.33301 1 -5.33301 3 -12c2 -8.66699 3.66699 -14.667 5 -18c14 -40 34 -68 60 -84c5.33301 -4.66699 10.333 -7.33398 15 -8.00098c4 -1.33301 9 -2.33301 15 -3l44 -3c20 0 39.333 5 58 15c22.667 13.333 38.334 29.666 47.001 48.999
v-238h132zM303.998 217.003c0 -30.667 -4 -56.002 -12 -76.002c-12 -30 -30.667 -45 -56 -45c-26.667 0 -45 15.667 -55 47c-3.33301 11.333 -5.66602 21 -6.99902 29c-0.666992 4.66699 -1 15 -1 31l1 55l1 44l1 61l4 43l9 35c4 12 9.66699 20 17 24
c2 0.666992 3.66699 1.33398 5 2.00098c6 2.66699 10.333 4.33398 13 5.00098c3.33301 0.666992 12.666 1 27.999 1c22 0 37 -17.333 45 -52c4.66699 -14 7 -42 7 -84v-120z" />
    <glyph glyph-name="r" unicode="r" horiz-adv-x="338" 
d="M314 422v158c-34 -4 -60.667 -14.667 -80 -32c-18 -16 -34.667 -41 -50 -75v91h-125v-564h132c0 257.333 12 393.333 36 408c16.667 9.33301 40 14 70 14h17z" />
    <glyph glyph-name="s" unicode="s" horiz-adv-x="439" 
d="M402 145c0 17.333 -1.33203 31.335 -3.99902 42.002c-2.66699 10 -6.33398 19.667 -11.001 29l-6 12l-2 3l-17 18l-21 23c-16 16 -30 27.667 -42 35l-100 66c-26 22 -39 40.333 -39 55c0 17.333 4.33301 30.666 13 39.999c10 10 26 15 48 15c23.333 0 39.333 -9 48 -27
c6.66699 -10.667 10 -31.667 10 -63h116c0 62 -13.667 109.333 -41 142c-28 31.333 -70.667 47 -128 47s-102.333 -13.333 -135 -40c-34 -26.667 -51 -65.334 -51 -116.001c0 -50 20.667 -94.667 62 -134l113 -81c41.333 -27.333 62 -51.333 62 -72
c0 -21.333 -5.66699 -36 -17 -44c-11.333 -8.66699 -28.333 -13 -51 -13c-22 0 -37.667 11.667 -47 35c-5.33301 14 -8 37.667 -8 71h-117c0 -73.333 14.333 -125.333 43 -156c28.667 -31.333 72.667 -47 132 -47c58 0 104.333 13.667 139 41c34 27.333 51 67 51 119z" />
    <glyph glyph-name="t" unicode="t" horiz-adv-x="271" 
d="M248 0l-5 88.001l-1 14l-21 -1c-10.667 1.33301 -18.667 8 -24 20c-2 6 -3 21 -3 45l1 303h53v95h-53v155h-131v-155h-50v-95h50c0 -278.667 7.33301 -427.334 22 -446.001c16 -18 37.667 -27 65 -27l59 2z" />
    <glyph glyph-name="u" unicode="u" horiz-adv-x="484" 
d="M428 0v564h-131c0 -268 -2.66699 -411 -8 -429c-10 -24.667 -26.667 -37 -50 -37c-24 0 -40.667 10.667 -50 32c-4.66699 11.333 -7 33 -7 65v369h-127c0 -336 11.333 -516.333 34 -541c22 -25.333 49 -38 81 -38c33.333 0 60.333 6.33301 81 19
c19.333 13.333 36 31 50 53v-57h127z" />
    <glyph glyph-name="v" unicode="v" horiz-adv-x="443" 
d="M432 564h-135l-72 -431l-75 431h-138l131 -564h160z" />
    <glyph glyph-name="w" unicode="w" horiz-adv-x="654" 
d="M641 564h-129l-55 -423l-76 423h-108l-62 -418l-61 418h-136l121 -564h142l51 336l65 -336h138z" />
    <glyph glyph-name="x" unicode="x" horiz-adv-x="438" 
d="M430 0l-143 289l141 275h-145l-60 -140l-61 140h-148l142 -275l-148 -289h146l67 150l64 -150h145z" />
    <glyph glyph-name="y" unicode="y" horiz-adv-x="443" 
d="M434 564h-131l-76 -408l-79 408h-138l144 -582l5 -17l1 -24c0 -11.333 -9 -19.333 -27 -24c-4.66699 -2.66699 -14.667 -4 -30 -4l-17 1v-98l21 -3l55 -1c30 0 56.333 11 79 33c18.667 18.667 34 52.667 46 102z" />
    <glyph glyph-name="z" unicode="z" horiz-adv-x="383" 
d="M361 0v111h-199l197 360v93h-336v-109h190l-192 -351v-104h340z" />
    <glyph glyph-name="braceleft" unicode="{" 
d="M432 -201l-0.000976562 101.001l-40 2c-12 0 -19.333 0.333008 -22 1s-6 1.66699 -10 3c-24.667 12 -37 41 -37 87l1 132c0 49.333 -12.333 84.333 -37 105c-10.667 8.66699 -21 15 -31 19c-10 5.33301 -21 9 -33 11c40.667 8.66699 68.334 25 83.001 49
c12 20 18 51.667 18 95c0 42 0.666992 82.333 2 121c0.666992 27.333 2.33398 45.666 5.00098 54.999c6 17.333 17.333 28.333 34 33c0.666992 0 2.33398 0.333008 5.00098 1c3.33301 1.33301 6.66602 2.33301 9.99902 3h3c6 1.33301 10.333 2 13 2h17h19v102l-29 1h-55
c-24.667 0 -50.667 -6 -78 -18c-37.333 -16 -58 -43 -62 -81l-2 -32l-1 -36c0 -98 -2 -156.667 -6 -176c-4.66699 -18.667 -12 -33 -22 -43c-10.667 -10.667 -26.334 -18 -47.001 -22l-54 -3v-104h6c44 0 75.667 -8 95 -24c18.667 -16.667 28 -49 28 -97l1 -166l2 -23
c6 -39.333 28 -67 66 -83c24 -10.667 53 -16 87 -16z" />
    <glyph glyph-name="bar" unicode="|" 
d="M301 -234v998h-101v-998h101z" />
    <glyph glyph-name="braceright" unicode="}" 
d="M424 207l-0.000976562 103.999h-6c-46 0 -78 8 -96 24c-18 17.333 -27 49.666 -27 96.999c0 111.333 -1.66699 178 -5 200c-8 30 -21.667 50.667 -41 62c-10.667 6.66699 -24 13 -40 19c-12.667 4 -25 6 -37 6l-55 3h-39l-8 -1v-102h12l41 -3
c24 -4.66699 38 -12.667 42 -24c8.66699 -18 13 -41 13 -69c0 -123.333 6 -194.666 18 -213.999c14.667 -24.667 41.667 -41 81 -49c-39.333 -10 -65.666 -25.667 -78.999 -47c-13.333 -22.667 -20 -56 -20 -100c0 -100.667 -2.33301 -157.667 -7 -171
c-6.66699 -20 -18 -32 -34 -36l-17 -3c-4 -1.33301 -8.66699 -2 -14 -2l-36 -1v-101c38.667 0 69 1.33301 91 4c26.667 3.33301 50 7.33301 70 12c27.333 8 46 28.333 56 61c5.33301 20 8 49.667 8 89c0 128.667 9.33301 201.334 28 218.001c18 16 51.667 24 101 24z" />
    <glyph glyph-name="asciitilde" unicode="~" horiz-adv-x="1000" 
d="M800 688l-99 0.000976562l-4 -49l-10 -35c-14 -28 -33.667 -42 -59 -42c-26.667 0 -52.667 10.667 -78 32l-72 61c-16.667 11.333 -35.334 19.666 -56.001 24.999c-18 4.66699 -41 7 -69 7c-51.333 0 -91.666 -22.667 -120.999 -68c-24 -38 -36 -87.333 -36 -148v-6h98v6
c0 34.667 5 61 15 79c12.667 26.667 33 40 61 40c26.667 0 52.667 -10.667 78 -32l71 -61c32.667 -21.333 74 -32 124 -32c51.333 0 91.333 22 120 66c24.667 36.667 37 89 37 157z" />
    <glyph glyph-name="exclamdown" unicode="&#xa1;" horiz-adv-x="293" 
d="M209 617v135h-129v-135h129zM213 0l-1 212l-3 89l-4 48l-17 208h-84l-18 -208l-4 -40l-4 -40v-25v-244h135z" />
    <glyph glyph-name="cent" unicode="&#xa2;" 
d="M424 381c0 15.333 -0.666016 33.665 -1.99902 54.998c-0.666992 12.667 -2.33398 26 -5.00098 40c-8 33.333 -19.667 58.333 -35 75c-21.333 23.333 -49.666 37 -84.999 41v135h-89v-135l-9 -2c-20 -4 -32 -7 -36 -9c-17.333 -7.33301 -30 -16 -38 -26
c-18.667 -21.333 -32.334 -47 -41.001 -77l-9 -37l-3 -34l-2 -115c0 -53.333 1 -90.666 3 -111.999c6 -50.667 17 -89.667 33 -117c24 -36 58 -57 102 -63v-158h89v158c37.333 0 66.333 14.333 87 43c17.333 22.667 28 50.667 32 84s6 69 6 107h-123v-7v-12l1 -41
c0 -18 -2.33301 -33 -7 -45c-8 -18 -22.667 -27 -44 -27c-23.333 0 -38 14.333 -44 43c-2 12 -3 37 -3 75l2 120l-2 66c0 56 14.667 84 44 84c27.333 0 44.333 -14 51 -42c3.33301 -13.333 5 -25.666 5 -36.999l-3 -30h125z" />
    <glyph glyph-name="sterling" unicode="&#xa3;" 
d="M482 23l-29.002 110l-22 -12l-23 -10c-16 -5.33301 -29.667 -8 -41 -8c-7.33301 0 -32 3.66699 -74 11l-15 3c-2 0.666992 -3.66699 1 -5 1c-4 0.666992 -7.66699 1 -11 1h-14c-5.33301 0 -12.666 -0.666992 -21.999 -2c-4.66699 -0.666992 -13 -2.33398 -25 -5.00098
l-51 -20l45 41l7 7l12 15c4 5.33301 8 11 12 17c21.333 33.333 32 60 32 80l-2 45l-2 21h117v72h-141c-14.667 21.333 -26 47.333 -34 78c-3.33301 9.33301 -6 19 -8 29c-0.666992 2 -1 4.66699 -1 8s-0.333008 6 -1 8l-3 42c0 28 5.66699 50.667 17 68
c15.333 21.333 38 32 68 32c30.667 0 52 -14.667 64 -44c6.66699 -15.333 10 -44 10 -86h123l-2 69l-2 20l-5 25c-8.66699 38 -32.667 68 -72 90c-32.667 18.667 -78 28 -136 28c-56 0 -102.667 -19 -140 -57s-56 -80.333 -56 -127c0 -45.333 4.33301 -81.333 13 -108
c9.33301 -28 20.333 -53 33 -75h-63v-72h94l5 -36l2 -32c0 -10.667 -2 -23 -6 -37l-8 -31l-5 -12c-8 -16.667 -19 -32.667 -33 -48c-14.667 -15.333 -31 -29.333 -49 -42l37 -94c13.333 6.66699 23 11.334 29 14.001c4 1.33301 6.33301 2 7 2l18 6c18 5.33301 36.667 8 56 8
c18 0 46.667 -4.33301 86 -13c42.667 -9.33301 74.667 -14 96 -14c20.667 0 41.334 3 62.001 9l30 11z" />
    <glyph glyph-name="currency" unicode="&#xa4;" horiz-adv-x="605" 
d="M574 215l-99.001 99c9.33301 14.667 18 33.667 26 57c6.66699 20 10 46 10 78s-12 66 -36 102l99 99l-51 51l-99 -97c-38.667 24 -79 36 -121 36s-81.667 -12 -119 -36l-100 97l-51 -51l100 -99c-25.333 -35.333 -38 -68.666 -38 -99.999c0 -30 3.66699 -56 11 -78
c7.33301 -22.667 16.333 -42.334 27 -59.001l-100 -99l51 -53l100 100c34.667 -24.667 74.334 -37 119.001 -37c44 0 84.333 12.333 121 37l99 -100zM437.999 420c0 -32.667 -14.332 -60.999 -42.999 -84.999s-59.667 -36 -93 -36c-34.667 0 -65.334 13.333 -92.001 40
c-27.333 27.333 -41 58.666 -41 93.999c0 34.667 13.667 65.667 41 93c26.667 26.667 56.667 40 90 40c32.667 0 61.667 -9.66699 87 -29s41 -43 47 -71l4 -20v-26z" />
    <glyph glyph-name="yen" unicode="&#xa5;" horiz-adv-x="557" 
d="M539 742h-135l-123 -290l-127 290h-138l107 -226h-100v-72h133l32 -67h-165v-70h192v-307h131v307h187v70h-162l31 67h131v72h-99z" />
    <glyph glyph-name="brokenbar" unicode="&#xa6;" 
d="M301 328v371h-101v-371h101zM301 -170v369h-101v-369h101z" />
    <glyph glyph-name="section" unicode="&#xa7;" 
d="M462 316c0 48 -22.666 91.667 -67.999 131l-127 85c-46 32 -69 59 -69 81c0 23.333 5 39 15 47c12 8 27.667 12 47 12c21.333 0 36 -6 44 -18s12 -30 12 -54h122c0 60.667 -15.667 104.667 -47 132c-30.667 26 -73 39 -127 39c-54.667 0 -100 -13 -136 -39
s-54 -58 -54 -96c0 -36 4.33301 -64.667 13 -86c10 -22 24.667 -40.667 44 -56c-32.667 -10 -56.334 -25.333 -71.001 -46c-15.333 -21.333 -23 -47.666 -23 -78.999c0 -32 9.33301 -60.333 28 -85l26 -29l40 -32l121 -92l39 -32c13.333 -14 20 -29.333 20 -46
s-5.66699 -29.667 -17 -39c-12 -10 -29 -15 -51 -15s-37.667 6.66699 -47 20s-14 29.666 -14 48.999v12h-123c0 -68 15 -115.333 45 -142c29.333 -28 67 -42 113 -42c44.667 0 79 3.33301 103 10l34 13l36 21c17.333 12.667 29 29 35 49c6 21.333 9 45.333 9 72
c0 25.333 -5.33301 50 -16 74s-27 43.333 -49 58c33.333 11.333 57 27 71 47c14.667 20.667 22 46 22 76zM347.001 297l-3 -16.001l-8 -15c-6 -8 -14.333 -15.333 -25 -22l-14 10l-13 9l-49 33c-24.667 16 -43 31 -55 45c-8 8 -14.333 16.667 -19 26
c-4.66699 6.66699 -7 13.334 -7 20.001c0 12 3.66699 22.667 11 32c8.66699 8.66699 18 16 28 22l110 -80c14 -10 24 -19.333 30 -28c9.33301 -12.667 14 -24.667 14 -36z" />
    <glyph glyph-name="dieresis" unicode="&#xa8;" 
d="M387 637v115h-108v-115h108zM221 637v115h-108v-115h108z" />
    <glyph glyph-name="copyright" unicode="&#xa9;" horiz-adv-x="832" 
d="M779 357c0 102 -35.334 188.333 -106.001 259c-71.333 71.333 -156.666 107 -255.999 107s-184.666 -36 -255.999 -108s-107 -157.333 -107 -256c0 -97.333 35.667 -182.333 107 -255c71.333 -72 156.666 -108 255.999 -108c100 0 185.333 35.333 256 106
c70.667 70 106 155 106 255zM721.999 357c0 -82 -30.3311 -152.333 -90.998 -211c-60 -59.333 -131.333 -89 -214 -89c-81.333 0 -152.333 29.333 -213 88c-61.333 59.333 -92 130.333 -92 213s30.667 154 92 214s132.666 90 213.999 90
c83.333 0 154.666 -30.333 213.999 -91c60 -60.667 90 -132 90 -214zM598.001 291l-94 0.00195312c-4.66699 -24.667 -14 -44 -28 -58c-15.333 -13.333 -37.333 -20 -66 -20c-30 0 -53.333 16.333 -70 49c-13.333 26 -20 57.667 -20 95c0 38 7 71.333 21 100
c18 36 40.667 54 68 54c28 0 49 -7 63 -21c16 -14 25.333 -31.333 28 -52h92c-6 44 -25 78.667 -57 104c-32.667 24 -74.334 36 -125.001 36c-52.667 0 -98 -22 -136 -66c-34.667 -40.667 -52 -92.334 -52 -155.001s16.333 -113.334 49 -152.001
c36.667 -42.667 82.334 -64 137.001 -64c55.333 0 99.333 13 132 39c21.333 16 36 32.667 44 50c9.33301 20 14 40.333 14 61z" />
    <glyph glyph-name="ordfeminine" unicode="&#xaa;" horiz-adv-x="363" 
d="M338 357c-9.33301 20 -13.998 39.0039 -13.998 57.0039c0 198 -12 306.333 -36 325c-20.667 16.667 -55.334 25 -104.001 25c-47.333 0 -83.333 -10.333 -108 -31c-26 -20.667 -39 -53.334 -39 -98.001h96c0 20 4 35.333 12 46c6.66699 10.667 18 16 34 16
c15.333 0 27.666 -2.66699 36.999 -8c8.66699 -4.66699 13 -16.334 13 -35.001c0 -18 -16.667 -34 -50 -48l-94 -43c-34 -24.667 -51 -56.334 -51 -95.001c0 -40.667 8.33301 -70.334 25 -89.001c16.667 -20.667 38.667 -31 66 -31c25.333 0 47 3.66699 65 11
c16 8.66699 30 21 42 37l3 -17l7 -22h96zM231.002 519.004c0 -23.333 -2.66699 -44.666 -8 -63.999c-9.33301 -25.333 -22 -38 -38 -38c-18 0 -31 4.66699 -39 14c-8 11.333 -12 25.666 -12 42.999c0 18 11 36.333 33 55c14.667 14 35.667 25.667 63 35l1 -9v-36z" />
    <glyph glyph-name="guillemotleft" unicode="&#xab;" horiz-adv-x="482" 
d="M416 94v107l-94 82l94 80v108l-152 -139v-100zM221 94v107l-94 82l94 80v108l-155 -139v-100z" />
    <glyph glyph-name="logicalnot" unicode="&#xac;" horiz-adv-x="832" 
d="M709 178v244h-586v-96h490v-148h96z" />
    <glyph glyph-name="registered" unicode="&#xae;" horiz-adv-x="832" 
d="M779 357c0 102 -35.334 188.333 -106.001 259c-71.333 71.333 -156.666 107 -255.999 107s-184.666 -36 -255.999 -108s-107 -157.333 -107 -256c0 -97.333 35.667 -182.333 107 -255c71.333 -72 156.666 -108 255.999 -108c100 0 185.333 35.333 256 106
c70.667 70 106 155 106 255zM721.999 355c0 -81.333 -30.666 -151.332 -91.999 -209.999c-60.667 -58.667 -131.667 -88 -213 -88c-80 0 -150.667 29.667 -212 89c-62 59.333 -93 129.666 -93 210.999c0 82 30.667 153.667 92 215c61.333 60 132.666 90 213.999 90
c82.667 0 154 -30.667 214 -92c60 -62 90 -133.667 90 -215zM598 164.001l-90.001 180.001c26 7.33301 47.667 20.666 65 39.999c16 20 24 47.333 24 82c0 36 -19.333 63 -58 81c-25.333 12.667 -63.666 19 -114.999 19h-158v-402h97v164h49l76 -164h110zM493.999 447.002
c0 -18.667 -6.66699 -33 -20 -43c-14 -10 -38.333 -15 -73 -15h-38v117c50 0 84.333 -4 103 -12s28 -23.667 28 -47z" />
    <glyph glyph-name="macron" unicode="&#xaf;" 
d="M500 664v100h-500v-100h500z" />
    <glyph glyph-name="degree" unicode="&#xb0;" horiz-adv-x="400" 
d="M333 593c0 36.667 -13.332 68.333 -39.999 95s-58.334 40 -95.001 40c-37.333 0 -69.333 -13.333 -96 -40s-40 -58.334 -40 -95.001c0 -37.333 13.333 -69.333 40 -96s58.667 -40 96 -40c36 0 67.667 13.667 95 41c26.667 26.667 40 58.334 40 95.001zM280.001 592.999
c0 -22.667 -8 -41.999 -24 -57.999c-15.333 -16.667 -34.333 -25 -57 -25c-22 0 -41.333 8.66699 -58 26c-16.667 16.667 -25 35.667 -25 57c0 23.333 8.33301 42.666 25 57.999c17.333 16 36.333 24 57 24c21.333 0 40.333 -8.33301 57 -25s25 -35.667 25 -57z" />
    <glyph glyph-name="plusminus" unicode="&#xb1;" horiz-adv-x="832" 
d="M709 342v96h-243v160h-99v-160h-244v-96h244l-1 -160h100v160h243zM709 0v96h-586v-96h586z" />
    <glyph glyph-name="twosuperior" unicode="&#xb2;" horiz-adv-x="330" 
d="M302 625c0 43.333 -12.668 75.668 -38.001 97.001c-22.667 18.667 -58 28 -106 28s-82 -12.667 -102 -38c-16.667 -20.667 -25 -56 -25 -106v-6h86v12l-1 23c0.666992 10.667 5 22.667 13 36c7.33301 11.333 18.666 17 33.999 17c16.667 0 29.334 -6 38.001 -18
c6.66699 -8.66699 10 -25 10 -49c0 -23.333 -16 -50 -48 -80c-49.333 -46 -78.666 -76 -87.999 -90c-32 -44.667 -48 -96 -48 -154h270v73h-176c12.667 28 35 57 67 87l42 40c1.33301 1.33301 4 3.66602 8 6.99902c15.333 14.667 24.333 23.667 27 27
c24.667 28.667 37 60 37 94z" />
    <glyph glyph-name="threesuperior" unicode="&#xb3;" horiz-adv-x="330" 
d="M304 427c0 28 -5.00195 51.332 -15.002 69.999c-12.667 24 -31 38 -55 42c19.333 6 34 17.667 44 35c10 19.333 15 42.666 15 69.999c0 29.333 -12.333 54.333 -37 75s-53.667 31 -87 31c-30.667 0 -59.334 -6.33301 -86.001 -19
c-27.333 -13.333 -43 -31.666 -47 -54.999l-4 -30l-1 -21v-10h86c0 23.333 2 40.333 6 51c8 15.333 20.333 23 37 23c18 0 30 -5.66699 36 -17c6 -12 9 -28.667 9 -50c0 -22 -8 -37.667 -24 -47c-12 -6 -32.667 -9 -62 -9v-58c38.667 0 63 -3 73 -9c14 -10 21 -31 21 -63
c0 -33.333 -4.33301 -55.333 -13 -66c-9.33301 -11.333 -23.666 -17 -42.999 -17s-32.666 11 -39.999 33c-2 7.33301 -3 16 -3 26c-0.666992 6.66699 -1 18.334 -1 35.001h-86l-1 -13v-75c0 -47.333 33.667 -71 101 -71c68.667 0 115.334 12.333 140.001 37
c24.667 24 37 58 37 102z" />
    <glyph glyph-name="acute" unicode="&#xb4;" 
d="M391 764h-125l-84 -139h60z" />
    <glyph glyph-name="mu" unicode="&#xb5;" horiz-adv-x="609" 
d="M578 533l-139.999 0.000976562l-45 -252l-18 -80c-8.66699 -28 -21 -51.333 -37 -70c-19.333 -20.667 -43 -31 -71 -31c-28.667 0 -49 9.33301 -61 28c-12 18 -18 39.333 -18 64v22l5 47l10 59l37 213h-140l-129 -746h138l43 256c12.667 -18.667 27.667 -33 45 -43
c9.33301 -5.33301 18.666 -9 27.999 -11s19.666 -3 30.999 -3c24 0 44.333 6.33301 61 19c16.667 11.333 31.334 28.666 44.001 51.999l-7 -57h130z" />
    <glyph glyph-name="paragraph" unicode="&#xb6;" 
d="M480 668v55c-232 0 -366.333 -15.333 -403 -46c-38 -30.667 -57 -68 -57 -112s10.333 -81.333 31 -112c20 -30.667 47 -50 81 -58l32 -7l35 -5v-383h74v668h79v-668h74v668h54z" />
    <glyph glyph-name="periodcentered" unicode="&#xb7;" horiz-adv-x="590" 
d="M438 370c0 40 -14.332 74.332 -42.999 102.999c-28.667 28 -62.667 42 -102 42c-40.667 0 -74.334 -13.333 -101.001 -40c-27.333 -27.333 -41 -60.666 -41 -99.999c0 -40 13.667 -74.667 41 -104c26.667 -28.667 60.667 -43 102 -43c38.667 0 72.667 13.667 102 41
c28 29.333 42 63 42 101z" />
    <glyph glyph-name="periodcentered" unicode="&#x2219;" horiz-adv-x="590" 
d="M438 370c0 40 -14.332 74.332 -42.999 102.999c-28.667 28 -62.667 42 -102 42c-40.667 0 -74.334 -13.333 -101.001 -40c-27.333 -27.333 -41 -60.666 -41 -99.999c0 -40 13.667 -74.667 41 -104c26.667 -28.667 60.667 -43 102 -43c38.667 0 72.667 13.667 102 41
c28 29.333 42 63 42 101z" />
    <glyph glyph-name="cedilla" unicode="&#xb8;" 
d="M372 -132c0 30 -9.66797 52.667 -29.001 68c-14.667 12.667 -38 21 -70 25v39h-56v-104l39 -3c15.333 -5.33301 23 -14 23 -26c0 -12.667 -5.33301 -22.334 -16 -29.001c-9.33301 -4 -19.666 -6 -30.999 -6l-39 3l-60 11v-69l58 -9c8 -1.33301 20 -2.66602 36 -3.99902
c8 -0.666992 19.667 -1 35 -1c28 0 52.333 8.33301 73 25c24.667 20 37 46.667 37 80z" />
    <glyph glyph-name="onesuperior" unicode="&#xb9;" horiz-adv-x="330" 
d="M225 297v453h-61c-6 -28.667 -23 -50.667 -51 -66c-24 -12 -52 -18 -84 -18v-53h108v-316h88z" />
    <glyph glyph-name="ordmasculine" unicode="&#xba;" horiz-adv-x="358" 
d="M329 570c0 31.333 -2.33496 57.668 -7.00195 79.001c-5.33301 24 -10.666 41 -15.999 51c-12.667 24.667 -32 42 -58 52l-14 6l-13 3l-18 3h-50c-25.333 0 -49.666 -9.66699 -72.999 -29c-22.667 -18.667 -37 -42.334 -43 -71.001s-9 -65 -9 -109c0 -22 1 -42.667 3 -62
c2 -22 4.33301 -38.333 7 -49c6.66699 -28 20.667 -51 42 -69c23.333 -18 57 -27 101 -27c45.333 0 79.333 10.333 102 31c20 18 33 44.667 39 80c4.66699 19.333 7 56.333 7 111zM228.998 538.002l-1 -53c0 -16.667 -3 -31 -9 -43c-8 -17.333 -22 -26 -42 -26
s-33.667 11 -41 33l-4 26v3c-1.33301 10 -2 17 -2 21v22l-1 94v6c0 20 3.33301 35.333 10 46c10 16 25.333 24 46 24c21.333 0 35 -14.333 41 -43c2 -10 3 -28 3 -54v-12v-44z" />
    <glyph glyph-name="guillemotright" unicode="&#xbb;" horiz-adv-x="482" 
d="M416 232v100l-152 139v-108l93 -80l-93 -82v-107zM221 232v100l-155 139v-108l94 -80l-94 -82v-107z" />
    <glyph glyph-name="onequarter" unicode="&#xbc;" horiz-adv-x="797" 
d="M771 84v62h-39v268h-89l-141 -264v-66h150v-84h80v84h39zM654 145h-90l90 169v-169zM646 758h-74l-424 -772h75zM215 326v424.001h-59c-6 -28.667 -22.333 -49.334 -49 -62.001c-20 -10.667 -46.667 -16 -80 -16v-49h104v-297h84z" />
    <glyph glyph-name="onehalf" unicode="&#xbd;" horiz-adv-x="797" 
d="M771 312c0 38.667 -13.668 67.668 -41.001 87.001c-22.667 16.667 -56 25 -100 25s-75 -11 -93 -33c-18 -22.667 -27 -57.334 -27 -104.001v-6h82l-1 12v22c0.666992 9.33301 4 20.333 10 33c8 12 19.333 18 34 18c15.333 0 27.333 -5.33301 36 -16
c7.33301 -11.333 11 -27 11 -47c0 -22 -15 -47 -45 -75c-49.333 -45.333 -77.333 -72.666 -84 -81.999c-30 -40.667 -45 -89.334 -45 -146.001h256v66h-166c10.667 26 31.334 53.333 62.001 82l51 49l23 24c24.667 28.667 37 59 37 91zM645.999 758.001h-74l-424 -772h75z
M214.999 326.001v424.001h-59c-6 -28.667 -22.333 -49.334 -49 -62.001c-20 -10.667 -46.667 -16 -80 -16v-49h104v-297h84z" />
    <glyph glyph-name="threequarters" unicode="&#xbe;" horiz-adv-x="797" 
d="M771 84v62h-39v268h-89l-141 -264v-66h150v-84h80v84h39zM654 145h-90l90 169v-169zM646 758h-74l-424 -772h75zM290 447c0 28 -4.33398 50.334 -13.001 67.001c-12 22 -29.333 35 -52 39c17.333 6.66699 31.333 18 42 34c9.33301 15.333 14 36.666 14 63.999
c0 28 -12 52 -36 72c-24 18 -52 27 -84 27c-35.333 0 -65 -7 -89 -21s-38 -35.667 -42 -65l-2 -20l1 -19h82v6c0 23.333 4 39.333 12 48c6.66699 8.66699 17.334 13 32.001 13c15.333 0 26 -5 32 -15s9 -25 9 -45c0 -20.667 -7.66699 -35.667 -23 -45
c-10.667 -6 -30 -9 -58 -9v-55c28 0 47 -1.33301 57 -4c21.333 -7.33301 32 -27 32 -59c0 -34.667 -4.33301 -56.667 -13 -66c-8.66699 -10.667 -21.667 -16 -39 -16c-18 0 -31 10.333 -39 31c-4 12 -6 26.333 -6 43v15h-82l2 -44l2 -21l5 -22c6 -20.667 21.667 -36 47 -46
c24 -10.667 53.333 -16 88 -16c33.333 0 62 11 86 33c23.333 22.667 35 54.667 35 96z" />
    <glyph glyph-name="questiondown" unicode="&#xbf;" horiz-adv-x="490" 
d="M340 621v131h-125v-131h125zM438 201l-123.996 0.000976562c0 -28 -1 -47 -3 -57c-4.66699 -22.667 -14.334 -38.334 -29.001 -47.001l-17 -8c-6.66699 -2 -15.334 -3 -26.001 -3c-10.667 1.33301 -21.667 9 -33 23c-11.333 13.333 -17 34.333 -17 63
c0 27.333 9.66699 57.666 29 90.999c3.33301 6.66699 23.333 32.334 60 77.001c24.667 29.333 41 58 49 86c4.66699 11.333 7 20 7 26c1.33301 6.66699 2 15 2 25l2 62v12h-117l-4 -45c0 -9.33301 -0.333008 -15 -1 -17c0 -0.666992 -0.666992 -3.66699 -2 -9
c-0.666992 -3.33301 -1.33398 -6.33301 -2.00098 -9c-2.66699 -8 -6.66699 -16.333 -12 -25c-14.667 -23.333 -36.334 -52.333 -65.001 -87l-36 -44l-23 -35c-16.667 -32 -25 -72.667 -25 -122s18 -91 54 -125c35.333 -34 77 -51 125 -51s87.667 8.33301 119 25
c31.333 16 54.333 39.333 69 70l11 27c4 12 6 21.667 6 29z" />
    <glyph glyph-name="Agrave" unicode="&#xc0;" horiz-adv-x="547" 
d="M342 814l-84 139h-125l148 -139h61zM537 0l-172 752h-187l-168 -752h142l36 189h162l37 -189h150zM328 304h-117l59 313z" />
    <glyph glyph-name="Aacute" unicode="&#xc1;" horiz-adv-x="547" 
d="M414 953h-125l-84 -139h61zM537 0l-172 752h-187l-168 -752h142l36 189h162l37 -189h150zM328 304h-117l59 313z" />
    <glyph glyph-name="Acircumflex" unicode="&#xc2;" horiz-adv-x="547" 
d="M408 814l-84 139h-101l-84 -139h60l74 73l75 -73h60zM537 0l-172 752h-187l-168 -752h142l36 189h162l37 -189h150zM328 304h-117l59 313z" />
    <glyph glyph-name="Atilde" unicode="&#xc3;" horiz-adv-x="547" 
d="M410 947l-43 0.000976562c-4 -13.333 -8.33301 -22.333 -13 -27c-6.66699 -6.66699 -15.334 -10 -26.001 -10c-10.667 1.33301 -18.334 2.66602 -23.001 3.99902l-19 4c-2.66699 0.666992 -6 1.66699 -10 3c-24 8 -44.667 12 -62 12c-19.333 0 -36.666 -13 -51.999 -39
c-10.667 -16 -19 -40.667 -25 -74h43c2.66699 5.33301 5.33398 10.333 8.00098 15c0.666992 2.66699 2.66699 6 6 10c8 6 16.667 9 26 9l25 -4l25 -6c23.333 -7.33301 44.333 -11 63 -11c20 0 37.333 13 52 39c10 16.667 18.333 41.667 25 75zM537 0.000976562l-172 752
h-187l-168 -752h142l36 189h162l37 -189h150zM328 304.001h-117l59 313z" />
    <glyph glyph-name="Adieresis" unicode="&#xc4;" horiz-adv-x="547" 
d="M410 826v115h-107v-115h107zM244 826v115h-107v-115h107zM537 0l-172 752h-187l-168 -752h142l36 189h162l37 -189h150zM328 304h-117l59 313z" />
    <glyph glyph-name="Aring" unicode="&#xc5;" horiz-adv-x="547" 
d="M369 865c0 27.333 -10 50.333 -30 69c-20 19.333 -42.667 29 -68 29c-26 0 -48.667 -9.66699 -68 -29c-19.333 -20 -29 -43.333 -29 -70c0 -26 9.66699 -48.667 29 -68c18.667 -18.667 42 -28 70 -28c28.667 0 51.667 9.33301 69 28c18 19.333 27 42.333 27 69zM311 865
c0 -10.667 -3.66895 -19.666 -11.002 -26.999s-17 -11 -29 -11c-11.333 0 -20.666 3.66699 -27.999 11s-11 16.333 -11 27s3.66699 19.667 11 27c6.66699 6.66699 16 10 28 10c10.667 0 20.334 -3.66699 29.001 -11c7.33301 -8.66699 11 -17.334 11 -26.001z
M536.998 0.000976562l-172 740h-187l-168 -740h142l36 189h162l37 -189h150zM327.998 304.001h-117l59 313z" />
    <glyph glyph-name="AE" unicode="&#xc6;" horiz-adv-x="766" 
d="M727 0v127h-243v209h225v115h-225v176h241v125h-461l-285 -752h148l64 191h159v-191h377zM350 299h-123l105 328h18v-328z" />
    <glyph glyph-name="Ccedilla" unicode="&#xc7;" horiz-adv-x="549" 
d="M498 268l-135.001 0.000976562c0 -41.333 -2 -72.666 -6 -93.999c-8 -42 -22.667 -66 -44 -72l-20 -3l-24 -2c-8.66699 0.666992 -19.667 3 -33 7c-10.667 4.66699 -18.667 13 -24 25c-4.66699 10.667 -8.66699 23.334 -12 38.001c-3.33301 15.333 -5 33.666 -5 54.999
l-2 54l-2 76l1 132c0 22 1 42 3 60c2 20.667 4.33301 35.334 7 44.001c12.667 46.667 37 70 73 70c35.333 0 59.666 -15.667 72.999 -47c8 -20 12 -44 12 -72l-1 -19h137c0 55.333 -9.66699 106 -29 152c-26 53.333 -63.667 84 -113 92l-41 6l-80 2
c-38 0 -75.333 -18.333 -112 -55c-30 -32 -50.333 -77 -61 -135c-8 -42 -12 -88.667 -12 -140l1 -123c0 -10.667 0.333008 -19.667 1 -27c0 -14.667 1.33301 -31.334 4 -50.001l7 -59l7 -50c8 -43.333 27.667 -77.666 59 -102.999c31.333 -26 69 -41 113 -45v-89l40 -3
c15.333 -5.33301 23 -14 23 -26c0 -12.667 -5.33301 -22.334 -16 -29.001c-10 -4 -21.667 -6 -35 -6l-26 2l-35 6l-35 6v-69l59 -9l39 -4l21 -1c20 0 38 2.33301 54 7c25.333 7.33301 41 17.666 47 30.999l8 19l7 22c2.66699 7.33301 4 20.666 4 39.999
c0 18.667 -9.66699 36.667 -29 54c-18 14 -41 22.333 -69 25v23c14.667 0 28.334 1 41.001 3c11.333 2 22.333 4.66699 33 8c24.667 9.33301 43.667 20 57 32c28.667 25.333 47.334 57 56.001 95c9.33301 39.333 14 88 14 146z" />
    <glyph glyph-name="Egrave" unicode="&#xc8;" horiz-adv-x="494" 
d="M322 814l-84 139h-125l149 -139h60zM455 0v127h-252v207h231v119h-231v174h246v125h-385v-752h391z" />
    <glyph glyph-name="Eacute" unicode="&#xc9;" horiz-adv-x="494" 
d="M395 953h-125l-84 -139h60zM455 0v127h-252v207h231v119h-231v174h246v125h-385v-752h391z" />
    <glyph glyph-name="Ecircumflex" unicode="&#xca;" horiz-adv-x="494" 
d="M389 814l-84 139h-102l-84 -139h61l74 73l74 -73h61zM455 0v127h-252v207h231v119h-231v174h246v125h-385v-752h391z" />
    <glyph glyph-name="Edieresis" unicode="&#xcb;" horiz-adv-x="494" 
d="M391 826v115h-108v-115h108zM225 826v115h-108v-115h108zM455 0v127h-252v207h231v119h-231v174h246v125h-385v-752h391z" />
    <glyph glyph-name="Igrave" unicode="&#xcc;" horiz-adv-x="268" 
d="M203 814l-84 139h-125l149 -139h60zM203 0v752h-139v-752h139z" />
    <glyph glyph-name="Iacute" unicode="&#xcd;" horiz-adv-x="268" 
d="M275 953h-125l-84 -139h61zM203 0v752h-139v-752h139z" />
    <glyph glyph-name="Icircumflex" unicode="&#xce;" horiz-adv-x="268" 
d="M270 814l-84 139h-102l-84 -139h61l74 73l74 -73h61zM203 0v752h-139v-752h139z" />
    <glyph glyph-name="Idieresis" unicode="&#xcf;" horiz-adv-x="268" 
d="M271 826v115h-107v-115h107zM105 826v115h-107v-115h107zM203 0v752h-139v-752h139z" />
    <glyph glyph-name="Eth" unicode="&#xd0;" horiz-adv-x="590" 
d="M543 447c0 24 -1.00098 47.002 -3.00098 69.002c-2 18 -4.66699 36.667 -8 56c-11.333 48 -27.666 85.667 -48.999 113c-28.667 34.667 -64 55 -106 61c-5.33301 1.33301 -12.666 2.66602 -21.999 3.99902c-4.66699 0.666992 -11 1 -19 1l-45 1h-225v-303h-70v-99h70
v-350c52 0 110 0.666992 174 2c20.667 0.666992 40 1 58 1c28.667 0.666992 47.667 1 57 1c29.333 4 51.666 9.33301 66.999 16c34 16 60 42 78 78c14.667 28 25 66 31 114c3.33301 21.333 5 38.666 5 51.999l3 62l3 49zM397.999 339.002c0 -42.667 -2 -78.668 -6 -108.001
c-8 -51.333 -20.667 -84.666 -38 -99.999c-8.66699 -8.66699 -21.667 -14.667 -39 -18c-0.666992 0 -3 -0.333008 -7 -1c-4.66699 -1.33301 -9 -2.33301 -13 -3h-25l-34 1l-33 1v239h113v99h-113v194l11 1c45.333 0 77 -1.33301 95 -4s31 -7 39 -13
c20.667 -15.333 35 -47 43 -95c4.66699 -22.667 7 -58.667 7 -108v-85z" />
    <glyph glyph-name="Ntilde" unicode="&#xd1;" horiz-adv-x="596" 
d="M434 947l-43 -0.00195312c-3.33301 -9.33301 -8 -17.666 -14 -24.999c-6.66699 -8 -15.334 -12 -26.001 -12h-2c-9.33301 1.33301 -16 2.66602 -20 3.99902c-4.66699 0.666992 -12.667 2.66699 -24 6l-5 1c-24 8 -44.667 12 -62 12c-20 0 -37.667 -13 -53 -39
c-10.667 -16 -19 -40.667 -25 -74h43c4 12.667 9.33301 21.334 16 26.001c6.66699 5.33301 14.334 8 23.001 8c10.667 0 24 -2.33301 40 -7c19.333 -5.33301 34.333 -9 45 -11c12 -2 22.333 -3 31 -3c19.333 0 36.333 13.333 51 40c10 16.667 18.333 41.334 25 74.001z
M531 -0.00195312v752h-131l4 -525l-197 525h-143v-752h131l-4 527l198 -527h142z" />
    <glyph glyph-name="Ograve" unicode="&#xd2;" horiz-adv-x="588" 
d="M361 814l-84 139h-125l149 -139h60zM538 290v105v6c-1.33301 10.667 -2 18 -2 22v25l-1 60v23c0 0.666992 -0.333008 2.66699 -1 6c-0.666992 9.33301 -2 18.333 -4 27l-15 55c-15.333 40 -34 72 -56 96c-8 9.33301 -14 15.333 -18 18l-3 3l-16 11
c-12.667 8.66699 -27 14 -43 16l-47 6l-88 2c-44.667 0 -86 -21 -124 -63c-30.667 -32.667 -51 -82.667 -61 -150c-6.66699 -35.333 -10 -96.666 -10 -183.999c0 -82 3 -142.667 9 -182c10 -67.333 31 -117 63 -149c38.667 -40.667 92.667 -61 162 -61
c68.667 0 121.667 13.667 159 41c36 27.333 61 63.666 75 108.999s21 98 21 158zM396 292l-2.00391 -53c0 -5.33301 -0.666992 -12.666 -2 -21.999c0 -2.66699 -1 -7.66699 -3 -15l-2 -12c-7.33301 -36 -18.666 -61.667 -33.999 -77c-5.33301 -6.66699 -13.333 -11 -24 -13
c-10 -3.33301 -19.333 -5 -28 -5h-25c-23.333 0 -43.666 15.667 -60.999 47c-8 14 -14 29.333 -18 46c-4 16 -6 33.667 -6 53v98c0 22 0.666992 59.333 2 112v9c0.666992 24 1.33398 42.667 2.00098 56v17c4 36.667 8.33301 59 13 67c10.667 21.333 22.667 36.666 36 45.999
c12.667 8.66699 33.334 13 62.001 13c28 0 50.667 -18.667 68 -56c7.33301 -17.333 13 -35 17 -53c3.33301 -22 5 -44 5 -66v-108v-84z" />
    <glyph glyph-name="Oacute" unicode="&#xd3;" horiz-adv-x="588" 
d="M435 953h-125l-85 -139h60zM538 290v105v6c-1.33301 10.667 -2 18 -2 22v25l-1 60v23c0 0.666992 -0.333008 2.66699 -1 6c-0.666992 9.33301 -2 18.333 -4 27l-15 55c-15.333 40 -34 72 -56 96c-8 9.33301 -14 15.333 -18 18l-3 3l-16 11c-12.667 8.66699 -27 14 -43 16
l-47 6l-88 2c-44.667 0 -86 -21 -124 -63c-30.667 -32.667 -51 -82.667 -61 -150c-6.66699 -35.333 -10 -96.666 -10 -183.999c0 -82 3 -142.667 9 -182c10 -67.333 31 -117 63 -149c38.667 -40.667 92.667 -61 162 -61c68.667 0 121.667 13.667 159 41
c36 27.333 61 63.666 75 108.999s21 98 21 158zM396 292l-2.00391 -53c0 -5.33301 -0.666992 -12.666 -2 -21.999c0 -2.66699 -1 -7.66699 -3 -15l-2 -12c-7.33301 -36 -18.666 -61.667 -33.999 -77c-5.33301 -6.66699 -13.333 -11 -24 -13c-10 -3.33301 -19.333 -5 -28 -5
h-25c-23.333 0 -43.666 15.667 -60.999 47c-8 14 -14 29.333 -18 46c-4 16 -6 33.667 -6 53v98c0 22 0.666992 59.333 2 112v9c0.666992 24 1.33398 42.667 2.00098 56v17c4 36.667 8.33301 59 13 67c10.667 21.333 22.667 36.666 36 45.999
c12.667 8.66699 33.334 13 62.001 13c28 0 50.667 -18.667 68 -56c7.33301 -17.333 13 -35 17 -53c3.33301 -22 5 -44 5 -66v-108v-84z" />
    <glyph glyph-name="Ocircumflex" unicode="&#xd4;" horiz-adv-x="588" 
d="M429 814l-84 139h-102l-84 -139h61l73 73l75 -73h61zM538 290v105v6c-1.33301 10.667 -2 18 -2 22v25l-1 60v23c0 0.666992 -0.333008 2.66699 -1 6c-0.666992 9.33301 -2 18.333 -4 27l-15 55c-15.333 40 -34 72 -56 96c-8 9.33301 -14 15.333 -18 18l-3 3l-16 11
c-12.667 8.66699 -27 14 -43 16l-47 6l-88 2c-44.667 0 -86 -21 -124 -63c-30.667 -32.667 -51 -82.667 -61 -150c-6.66699 -35.333 -10 -96.666 -10 -183.999c0 -82 3 -142.667 9 -182c10 -67.333 31 -117 63 -149c38.667 -40.667 92.667 -61 162 -61
c68.667 0 121.667 13.667 159 41c36 27.333 61 63.666 75 108.999s21 98 21 158zM396 292l-2.00391 -53c0 -5.33301 -0.666992 -12.666 -2 -21.999c0 -2.66699 -1 -7.66699 -3 -15l-2 -12c-7.33301 -36 -18.666 -61.667 -33.999 -77c-5.33301 -6.66699 -13.333 -11 -24 -13
c-10 -3.33301 -19.333 -5 -28 -5h-25c-23.333 0 -43.666 15.667 -60.999 47c-8 14 -14 29.333 -18 46c-4 16 -6 33.667 -6 53v98c0 22 0.666992 59.333 2 112v9c0.666992 24 1.33398 42.667 2.00098 56v17c4 36.667 8.33301 59 13 67c10.667 21.333 22.667 36.666 36 45.999
c12.667 8.66699 33.334 13 62.001 13c28 0 50.667 -18.667 68 -56c7.33301 -17.333 13 -35 17 -53c3.33301 -22 5 -44 5 -66v-108v-84z" />
    <glyph glyph-name="Otilde" unicode="&#xd5;" horiz-adv-x="588" 
d="M431 947h-43.001c-3.33301 -9.33301 -8 -17.666 -14 -24.999c-6.66699 -8 -15.334 -12 -26.001 -12h-2c-9.33301 1.33301 -16 2.66602 -20 3.99902c-4.66699 0.666992 -12.667 2.66699 -24 6l-5 1c-24 8 -45 12 -63 12c-19.333 0 -36.666 -13 -51.999 -39
c-10.667 -16 -19.334 -40.667 -26.001 -74h44c4 10.667 9.33301 19 16 25c7.33301 6 15 9 23 9l25 -4l25 -6c23.333 -7.33301 44.333 -11 63 -11c20.667 0 38.334 13 53.001 39c10.667 16 19.334 41 26.001 75zM537.999 290v105v6c-1.33301 10.667 -2 18 -2 22v25l-1 60v23
c0 0.666992 -0.333008 2.66699 -1 6c-0.666992 9.33301 -2 18.333 -4 27l-15 55c-15.333 40 -34 72 -56 96c-8 9.33301 -14 15.333 -18 18l-3 3l-16 11c-12.667 8.66699 -27 14 -43 16l-47 6l-88 2c-44.667 0 -86 -21 -124 -63c-30.667 -32.667 -51 -82.667 -61 -150
c-6.66699 -35.333 -10 -96.666 -10 -183.999c0 -82 3 -142.667 9 -182c10 -67.333 31 -117 63 -149c38.667 -40.667 92.667 -61 162 -61c68.667 0 121.667 13.667 159 41c36 27.333 61 63.666 75 108.999s21 98 21 158zM395.999 292l-2.00391 -53
c0 -5.33301 -0.666992 -12.666 -2 -21.999c0 -2.66699 -1 -7.66699 -3 -15l-2 -12c-7.33301 -36 -18.666 -61.667 -33.999 -77c-5.33301 -6.66699 -13.333 -11 -24 -13c-10 -3.33301 -19.333 -5 -28 -5h-25c-23.333 0 -43.666 15.667 -60.999 47c-8 14 -14 29.333 -18 46
c-4 16 -6 33.667 -6 53v98c0 22 0.666992 59.333 2 112v9c0.666992 24 1.33398 42.667 2.00098 56v17c4 36.667 8.33301 59 13 67c10.667 21.333 22.667 36.666 36 45.999c12.667 8.66699 33.334 13 62.001 13c28 0 50.667 -18.667 68 -56c7.33301 -17.333 13 -35 17 -53
c3.33301 -22 5 -44 5 -66v-108v-84z" />
    <glyph glyph-name="Odieresis" unicode="&#xd6;" horiz-adv-x="588" 
d="M431 826v115h-109v-115h109zM264 826v115h-108v-115h108zM538 290v105v6c-1.33301 10.667 -2 18 -2 22v25l-1 60v23c0 0.666992 -0.333008 2.66699 -1 6c-0.666992 9.33301 -2 18.333 -4 27l-15 55c-15.333 40 -34 72 -56 96c-8 9.33301 -14 15.333 -18 18l-3 3l-16 11
c-12.667 8.66699 -27 14 -43 16l-47 6l-88 2c-44.667 0 -86 -21 -124 -63c-30.667 -32.667 -51 -82.667 -61 -150c-6.66699 -35.333 -10 -96.666 -10 -183.999c0 -82 3 -142.667 9 -182c10 -67.333 31 -117 63 -149c38.667 -40.667 92.667 -61 162 -61
c68.667 0 121.667 13.667 159 41c36 27.333 61 63.666 75 108.999s21 98 21 158zM396 292l-2.00391 -53c0 -5.33301 -0.666992 -12.666 -2 -21.999c0 -2.66699 -1 -7.66699 -3 -15l-2 -12c-7.33301 -36 -18.666 -61.667 -33.999 -77c-5.33301 -6.66699 -13.333 -11 -24 -13
c-10 -3.33301 -19.333 -5 -28 -5h-25c-23.333 0 -43.666 15.667 -60.999 47c-2.66699 4.66699 -6 11.667 -10 21c-2 4.66699 -4.33301 11.667 -7 21c-4 16 -6 35 -6 57l-1 98c0 22 0.666992 59.333 2 112v9c0.666992 24 1.33398 42.667 2.00098 56v17
c4 36.667 8.33301 59 13 67c10.667 21.333 22.667 36.666 36 45.999c12.667 8.66699 33.334 13 62.001 13c28 0 50.667 -18.667 68 -56c7.33301 -17.333 13 -35 17 -53c3.33301 -22 5 -44 5 -66v-108v-84z" />
    <glyph glyph-name="multiply" unicode="&#xd7;" horiz-adv-x="832" 
d="M663 123l-177 177l171 171l-70 70l-170 -172l-176 176l-71 -71l176 -175l-173 -173l70 -69l173 172l176 -176z" />
    <glyph glyph-name="Oslash" unicode="&#xd8;" horiz-adv-x="588" 
d="M566 738l-61.9971 41.001l-41 -66c-13.333 12.667 -26.666 22.667 -39.999 30c-16 8 -29 13.667 -39 17c-19.333 6.66699 -58 10 -116 10c-54.667 0 -101.667 -17.667 -141 -53c-32 -30.667 -54 -75.334 -66 -134.001c-8 -42.667 -12 -89.334 -12 -140.001l2 -107l4 -81
l8 -77l9 -44l10 -32l-64 -108l62 -39l51 76c29.333 -22 55.666 -35.333 78.999 -40c25.333 -5.33301 54.666 -8 87.999 -8c34 0 67 4.66699 99 14c35.333 12.667 61.666 30.334 78.999 53.001c18 26.667 32.333 59 43 97c3.33301 11.333 6.66602 24 9.99902 38l6 27
c1.33301 12 2 27.333 2 46c0.666992 2.66699 1.33398 5.66699 2.00098 9c0 3.33301 0.666992 8 2 14v44v11v13v14l-2 65l-6 74c-2.66699 29.333 -6.33398 58 -11.001 86c-4 24.667 -8 43 -12 55zM385.003 574.001l-192 -303.999l-2 47v19v76l2 44l2 55
c0 21.333 1 38.333 3 51l11 40c8 19.333 18.667 33.666 32 42.999c12.667 8.66699 31.667 13 57 13c24 0 43.667 -6.66699 59 -20c16 -12.667 25.333 -34 28 -64zM397.003 325.002c0 -63.333 -3.66699 -112.333 -11 -147c-10 -36 -23.333 -59 -40 -69
c-12 -8 -23 -12 -33 -12l-43 -3c-17.333 0 -32 7.33301 -44 22c-12 15.333 -19 31.333 -21 48l188 305z" />
    <glyph glyph-name="Ugrave" unicode="&#xd9;" horiz-adv-x="599" 
d="M368 814l-84 139h-125l149 -139h60zM534 232l0.000976562 520h-137c0 -387.333 -4.33301 -590 -13 -608c-14 -31.333 -41.667 -47 -83 -47c-42 0 -70 15 -84 45c-8.66699 16.667 -13 50.667 -13 102v508h-140l2 -573l4 -46c10 -54.667 37 -94 81 -118
c39.333 -22 81.666 -33 126.999 -33c47.333 0 84.333 3 111 9c38 10 64.667 23.333 80 40c15.333 15.333 27.333 30 36 44c11.333 18 18 34.667 20 50l4 23l3 27z" />
    <glyph glyph-name="Uacute" unicode="&#xda;" horiz-adv-x="599" 
d="M439 953h-125l-83 -139h61zM534 232l0.000976562 520h-137c0 -387.333 -4.33301 -590 -13 -608c-14 -31.333 -41.667 -47 -83 -47c-42 0 -70 15 -84 45c-8.66699 16.667 -13 50.667 -13 102v508h-140l2 -573l4 -46c10 -54.667 37 -94 81 -118
c39.333 -22 81.666 -33 126.999 -33c47.333 0 84.333 3 111 9c38 10 64.667 23.333 80 40c15.333 15.333 27.333 30 36 44c11.333 18 18 34.667 20 50l4 23l3 27z" />
    <glyph glyph-name="Ucircumflex" unicode="&#xdb;" horiz-adv-x="599" 
d="M435 814l-84 139h-102l-84 -139h61l73 73l75 -73h61zM534 232l0.000976562 520h-137c0 -387.333 -4.33301 -590 -13 -608c-14 -31.333 -41.667 -47 -83 -47c-42 0 -70 15 -84 45c-8.66699 16.667 -13 50.667 -13 102v508h-140l2 -573l4 -46c10 -54.667 37 -94 81 -118
c39.333 -22 81.666 -33 126.999 -33c47.333 0 84.333 3 111 9c38 10 64.667 23.333 80 40c15.333 15.333 27.333 30 36 44c11.333 18 18 34.667 20 50l4 23l3 27z" />
    <glyph glyph-name="Udieresis" unicode="&#xdc;" horiz-adv-x="599" 
d="M437 826v115h-108v-115h108zM271 826v115h-108v-115h108zM534 232l0.000976562 520h-137c0 -387.333 -4.33301 -590 -13 -608c-14 -31.333 -41.667 -47 -83 -47c-42 0 -70 15 -84 45c-8.66699 16.667 -13 50.667 -13 102v508h-140l2 -573l4 -46
c10 -54.667 37 -94 81 -118c39.333 -22 81.666 -33 126.999 -33c47.333 0 84.333 3 111 9c38 10 64.667 23.333 80 40c15.333 15.333 27.333 30 36 44c11.333 18 18 34.667 20 50l4 23l3 27z" />
    <glyph glyph-name="Yacute" unicode="&#xdd;" horiz-adv-x="551" 
d="M416 953h-125l-84 -139h61zM541 752h-150l-114 -283l-113 283h-154l195 -434v-318h143v318z" />
    <glyph glyph-name="Thorn" unicode="&#xde;" horiz-adv-x="545" 
d="M516 406c0 69.333 -13.667 120.668 -41 154.001c-24.667 28 -61.667 45.333 -111 52c-10 1.33301 -29.667 2.66602 -59 3.99902c-18 0.666992 -52 1 -102 1v135h-139v-752h139v184c140.667 0 228 19 262 57c34 37.333 51 92.333 51 165zM377 402.002
c0 -45.333 -11 -76.667 -33 -94c-20 -14 -53.333 -21 -100 -21h-45v225l13 1h12c62 0 102.333 -7.33301 121 -22c21.333 -17.333 32 -47 32 -89z" />
    <glyph glyph-name="germandbls" unicode="&#xdf;" horiz-adv-x="486" 
d="M442 221l-4.00098 82c-6 30 -14.333 54 -25 72c-14.667 24.667 -34 43 -58 55c26 14 44 34 54 60c10.667 21.333 16 49 16 83s-6.33301 64 -19 90s-32.334 48.333 -59.001 67c-14 10.667 -29.667 17.667 -47 21c-16.667 3.33301 -49.334 5 -98.001 5
c-48 0 -85.333 -21.333 -112 -64c-22 -34 -33 -87.667 -33 -161v-531h127c0 396 2.66699 603 8 621c10 24 26 36 48 36c23.333 0 40.333 -10.333 51 -31c7.33301 -16 11 -34.333 11 -55c0 -21.333 -2.33301 -41.333 -7 -60c-4.66699 -20.667 -12.667 -33 -24 -37l-16 -4
l-17 -1v-90c33.333 0 55.333 -15.333 66 -46c6 -18 9 -45.667 9 -83v-66c0 -60 -9.66699 -90 -29 -90c-11.333 0 -18.666 0.333008 -21.999 1s-7.66602 1.66699 -12.999 3l-17 6v-98l32 -9c12 -2 28.333 -3 49 -3c22.667 0 41.667 5.66699 57 17
c14.667 10.667 28 24.667 40 42c8 12 13.667 23 17 33c4.66699 12.667 8.33398 29.667 11.001 51c2.66699 20.667 4 48.667 4 84z" />
    <glyph glyph-name="agrave" unicode="&#xe0;" horiz-adv-x="484" 
d="M311 625l-84 139h-125l148 -139h61zM451 0c-12.667 24.667 -18.9971 51.3301 -18.9971 79.9971c0 280.667 -14.333 434.334 -43 461.001c-28.667 26 -76.334 39 -143.001 39c-64.667 0 -113.334 -14.667 -146.001 -44s-49 -74.666 -49 -135.999v-4h127l4 37l9 26
c11.333 18 27 27 47 27c21.333 0 38 -4 50 -12c11.333 -9.33301 17 -25.666 17 -48.999c0 -24 -22.667 -46.667 -68 -68c-76 -36 -118 -57 -126 -63c-44.667 -32.667 -67 -76.667 -67 -132c0 -54.667 11.667 -97.667 35 -129c23.333 -32 52.666 -48 87.999 -48
c36 0 65.333 6.33301 88 19c22 12.667 40.667 29.667 56 51l3 -28l10 -27h127zM308.003 231.996c0 -34 -3.66602 -64 -10.999 -90c-12 -37.333 -29.667 -56 -53 -56s-40 6.33301 -50 19c-10 13.333 -15 31 -15 53s6.33301 42.333 19 61
c13.333 18.667 29.666 33.667 48.999 45l60 33l1 -6v-7v-52z" />
    <glyph glyph-name="aacute" unicode="&#xe1;" horiz-adv-x="484" 
d="M383 764h-125l-84 -139h60zM451 0c-12.667 24.667 -18.9971 51.3301 -18.9971 79.9971c0 280.667 -14.333 434.334 -43 461.001c-28.667 26 -76.334 39 -143.001 39c-64.667 0 -113.334 -14.667 -146.001 -44s-49 -74.666 -49 -135.999v-4h127l4 37l9 26
c11.333 18 27 27 47 27c21.333 0 38 -4 50 -12c11.333 -9.33301 17 -25.666 17 -48.999c0 -24 -22.667 -46.667 -68 -68c-76 -36 -118 -57 -126 -63c-44.667 -32.667 -67 -76.667 -67 -132c0 -54.667 11.667 -97.667 35 -129c23.333 -32 52.666 -48 87.999 -48
c36 0 65.333 6.33301 88 19c22 12.667 40.667 29.667 56 51l3 -28l10 -27h127zM308.003 231.996c0 -34 -3.66602 -64 -10.999 -90c-12 -37.333 -29.667 -56 -53 -56s-40 6.33301 -50 19c-10 13.333 -15 31 -15 53s6.33301 42.333 19 61
c13.333 18.667 29.666 33.667 48.999 45l60 33l1 -6v-7v-52z" />
    <glyph glyph-name="acircumflex" unicode="&#xe2;" horiz-adv-x="484" 
d="M377 625l-84 139h-102l-84 -139h61l74 72l74 -72h61zM451 0c-12.667 24.667 -18.9971 51.3301 -18.9971 79.9971c0 280.667 -14.333 434.334 -43 461.001c-28.667 26 -76.334 39 -143.001 39c-64.667 0 -113.334 -14.667 -146.001 -44s-49 -74.666 -49 -135.999v-4h127
l4 37l9 26c11.333 18 27 27 47 27c21.333 0 38 -4 50 -12c11.333 -9.33301 17 -25.666 17 -48.999c0 -24 -22.667 -46.667 -68 -68c-76 -36 -118 -57 -126 -63c-44.667 -32.667 -67 -76.667 -67 -132c0 -54.667 11.667 -97.667 35 -129c23.333 -32 52.666 -48 87.999 -48
c36 0 65.333 6.33301 88 19c22 12.667 40.667 29.667 56 51l3 -28l10 -27h127zM308.003 231.996c0 -34 -3.66602 -64 -10.999 -90c-12 -37.333 -29.667 -56 -53 -56s-40 6.33301 -50 19c-10 13.333 -15 31 -15 53s6.33301 42.333 19 61
c13.333 18.667 29.666 33.667 48.999 45l60 33l1 -6v-7v-52z" />
    <glyph glyph-name="atilde" unicode="&#xe3;" horiz-adv-x="484" 
d="M379 758h-43.001c-4 -14 -9 -23.333 -15 -28c-6.66699 -6 -15 -9 -25 -9h-2c-9.33301 1.33301 -16 2.66602 -20 3.99902c-4.66699 0.666992 -12.667 2.66699 -24 6l-5 1c-24 8 -43 12 -57 12c-16.667 0 -32 -8 -46 -24c-16.667 -19.333 -29 -49 -37 -89h43
c4 12.667 9.33301 21.334 16 26.001c6.66699 5.33301 14.667 8 24 8l21 -3l29 -8c14 -5.33301 25.333 -8.33301 34 -9c12 -1.33301 22 -2 30 -2c12 0 21.667 3.33301 29 10c8.66699 7.33301 16.334 17.333 23.001 30c10.667 14.667 19 39.667 25 75zM450.999 0
c-12.667 24.667 -18.9971 51.3301 -18.9971 79.9971c0 280.667 -14.333 434.334 -43 461.001c-28.667 26 -76.334 39 -143.001 39c-64.667 0 -113.334 -14.667 -146.001 -44s-49 -74.666 -49 -135.999v-4h127l4 37l9 26c11.333 18 27 27 47 27c21.333 0 38 -4 50 -12
c11.333 -9.33301 17 -25.666 17 -48.999c0 -24 -22.667 -46.667 -68 -68c-76 -36 -118 -57 -126 -63c-44.667 -32.667 -67 -76.667 -67 -132c0 -54.667 11.667 -97.667 35 -129c23.333 -32 52.666 -48 87.999 -48c36 0 65.333 6.33301 88 19c22 12.667 40.667 29.667 56 51
l3 -28l10 -27h127zM308.002 231.996c0 -34 -3.66602 -64 -10.999 -90c-12 -37.333 -29.667 -56 -53 -56s-40 6.33301 -50 19c-10 13.333 -15 31 -15 53s6.33301 42.333 19 61c13.333 18.667 29.666 33.667 48.999 45l60 33l1 -6v-7v-52z" />
    <glyph glyph-name="adieresis" unicode="&#xe4;" horiz-adv-x="484" 
d="M379 637v115h-108v-115h108zM213 637v115h-108v-115h108zM451 0c-12.667 24.667 -18.9971 51.3301 -18.9971 79.9971c0 280.667 -14.333 434.334 -43 461.001c-28.667 26 -76.334 39 -143.001 39c-64.667 0 -113.334 -14.667 -146.001 -44s-49 -74.666 -49 -135.999v-4
h127l4 37l9 26c11.333 18 27 27 47 27c21.333 0 38 -4 50 -12c11.333 -9.33301 17 -25.666 17 -48.999c0 -24 -22.667 -46.667 -68 -68c-76 -36 -118 -57 -126 -63c-44.667 -32.667 -67 -76.667 -67 -132c0 -54.667 11.667 -97.667 35 -129
c23.333 -32 52.666 -48 87.999 -48c36 0 65.333 6.33301 88 19c22 12.667 40.667 29.667 56 51l3 -28l10 -27h127zM308.003 231.996c0 -34 -3.66602 -64 -10.999 -90c-12 -37.333 -29.667 -56 -53 -56s-40 6.33301 -50 19c-10 13.333 -15 31 -15 53s6.33301 42.333 19 61
c13.333 18.667 29.666 33.667 48.999 45l60 33l1 -6v-7v-52z" />
    <glyph glyph-name="aring" unicode="&#xe5;" horiz-adv-x="484" 
d="M355 705c0 28.667 -9.33301 51.667 -28 69c-19.333 17.333 -42.333 26 -69 26c-28 0 -51.333 -8.33301 -70 -25s-28 -40 -28 -70c0 -28.667 9.33301 -52 28 -70c19.333 -18 42.333 -27 69 -27c28 0 51.333 9.33301 70 28s28 41.667 28 69zM297 705
c0 -10.667 -4.00098 -19.667 -12.001 -27c-8.66699 -7.33301 -18 -11 -28 -11c-11.333 1.33301 -20.666 5.33301 -27.999 12c-6.66699 6.66699 -10 15.334 -10 26.001c0 11.333 4 20.333 12 27c8.66699 7.33301 18 11 28 11c12 -0.666992 21.333 -4.66699 28 -12
c6.66699 -6.66699 10 -15.334 10 -26.001zM450.999 0c-12.667 24.667 -18.9971 51.3301 -18.9971 79.9971c0 280.667 -14.333 434.334 -43 461.001c-28.667 26 -76.334 39 -143.001 39c-64.667 0 -113.334 -14.667 -146.001 -44s-49 -74.666 -49 -135.999v-4h127l4 37l9 26
c11.333 18 27 27 47 27c21.333 0 38 -4 50 -12c11.333 -9.33301 17 -25.666 17 -48.999c0 -24 -22.667 -46.667 -68 -68c-76 -36 -118 -57 -126 -63c-44.667 -32.667 -67 -76.667 -67 -132c0 -54.667 11.667 -97.667 35 -129c23.333 -32 52.666 -48 87.999 -48
c36 0 65.333 6.33301 88 19c22 12.667 40.667 29.667 56 51l3 -28l10 -27h127zM308.002 231.996c0 -34 -3.66602 -64 -10.999 -90c-12 -37.333 -29.667 -56 -53 -56s-40 6.33301 -50 19c-10 13.333 -15 31 -15 53s6.33301 42.333 19 61
c13.333 18.667 29.666 33.667 48.999 45l60 33l1 -6v-7v-52z" />
    <glyph glyph-name="ae" unicode="&#xe6;" horiz-adv-x="707" 
d="M670 264c0 95.333 -4.33203 158.999 -12.999 190.999c-12 41.333 -29.667 71.666 -53 90.999c-30 24 -62.333 36 -97 36c-35.333 0 -62.666 -3 -81.999 -9c-18.667 -7.33301 -35.334 -17.333 -50.001 -30c-17.333 12 -38.333 21.667 -63 29c-22.667 6 -56 9 -100 9
c-44.667 0 -83 -14 -115 -42s-48 -73 -48 -135v-4h121c0 30.667 5.33301 52.334 16 65.001c11.333 15.333 28.333 23 51 23s39 -5.66699 49 -17c9.33301 -12.667 14 -29.667 14 -51c0 -22.667 -22.333 -44 -67 -64c-68 -30.667 -109 -51.667 -123 -63
c-44 -36 -66 -72.667 -66 -110c0 -38.667 3 -68.667 9 -90l9 -29l10 -23c11.333 -23.333 31.333 -39 60 -47c19.333 -6.66699 45.333 -10 78 -10c30 0 56.667 4.33301 80 13c26.667 10.667 48 26 64 46c18 -22.667 37.667 -37.667 59 -45c24 -9.33301 45.667 -14 65 -14
c8 0 18.667 0.666992 32 2c6 0.666992 14.667 2 26 4l5 1l47 11c24.667 6.66699 43 22 55 46c10 20 17 44.667 21 74l4 24v47h-121c0 -28.667 -3 -51.667 -9 -69c-10 -27.333 -22.333 -41 -37 -41l-37 4l-16 6c-10.667 4.66699 -17.334 22.334 -20.001 53.001l-2 47l1 42
l1 29h242zM549.001 353.999h-121l-1 48c0 22.667 6 42 18 58c9.33301 13.333 25 20 47 20c21.333 0 37 -11 47 -33c6.66699 -12.667 10 -34.667 10 -66v-27zM303.001 214.999c0 -37.333 -3 -65.666 -9 -84.999c-12 -32.667 -29.667 -49 -53 -49
c-24 0 -41.667 7.66699 -53 23c-8 14 -12 31.667 -12 53c0 23.333 6.33301 43.666 19 60.999c11.333 16 27 30 47 42l59 35z" />
    <glyph glyph-name="ccedilla" unicode="&#xe7;" horiz-adv-x="454" 
d="M413 223l-123.001 -0.000976562l1 -15v-32c0 -5.33301 -0.666992 -13 -2 -23v-3c-0.666992 -7.33301 -2.33398 -16.666 -5.00098 -27.999c-4.66699 -18.667 -11 -29 -19 -31l-20 -6l-29 -1c-13.333 0 -24 13 -32 39c-4.66699 12 -7 34 -7 66c0 156.667 2.66699 243 8 259
c8 20.667 24 31 48 31s40 -13.333 48 -40c4.66699 -12 7 -35.333 7 -70h125c0 70 -12.667 121.667 -38 155c-29.333 37.333 -74 56 -134 56c-61.333 0 -107 -13 -137 -39c-26 -22 -43.667 -55.667 -53 -101l-8 -49l-3 -48l1 -67l1 -42l5 -67l3 -37l10 -33l18 -36l25 -37
c10 -12 21.667 -20.333 35 -25c16.667 -5.33301 35.334 -9 56.001 -11v-92l39 -3c16 -5.33301 24 -14 24 -26c0 -12.667 -5.33301 -22.334 -16 -29.001c-8.66699 -4 -19 -6 -31 -6l-40 3l-60 11v-69l58 -9c8 -1.33301 20 -2.66602 36 -3.99902c8 -0.666992 19.667 -1 35 -1
c26.667 0 52 9 76 27c23.333 17.333 35 41.666 35 72.999c0 30.667 -10 54.667 -30 72c-15.333 14.667 -38.333 23.334 -69 26.001v26c22.667 0 42.334 3 59.001 9c18 6 34 15.333 48 28c22.667 18.667 38 46.667 46 84c6 28 9 66.333 9 115z" />
    <glyph glyph-name="egrave" unicode="&#xe8;" horiz-adv-x="478" 
d="M308 625l-84 139h-125l148 -139h61zM435 264c0 50 -0.333008 81.6689 -1 95.002c-0.666992 19.333 -1.66699 35.333 -3 48l-11 53c-4.66699 16 -10.667 30 -18 42c-17.333 31.333 -41.333 53 -72 65c-14.667 5.33301 -29.334 9 -44.001 11l-78 2
c-34.667 0 -67.667 -11.667 -99 -35c-26 -20.667 -44.333 -50.667 -55 -90c-8 -32.667 -12 -82.334 -12 -149.001l1 -87l3 -51c6.66699 -56.667 22.334 -99.334 47.001 -128.001c32 -36 81.667 -54 149 -54s116.333 17.333 147 52c28 32 42 83.667 42 155h-123
c0 -29.333 -4.33301 -53 -13 -71c-10.667 -26 -29.334 -39 -56.001 -39c-26 0 -44.667 16 -56 48c-3.33301 11.333 -5.66602 21.333 -6.99902 30c-0.666992 4 -1 13.667 -1 29l1 46l1 28h258zM304 354.002l-128 -0.000976562v19v37c0 20 6 37.333 18 52
c11.333 12 28 18 50 18c23.333 0 40 -11 50 -33c6.66699 -13.333 10 -36.666 10 -69.999v-23z" />
    <glyph glyph-name="eacute" unicode="&#xe9;" horiz-adv-x="478" 
d="M380 764h-126l-83 -139h60zM435 264c0 50 -0.333008 81.6689 -1 95.002c-0.666992 19.333 -1.66699 35.333 -3 48l-11 53c-4.66699 16 -10.667 30 -18 42c-17.333 31.333 -41.333 53 -72 65c-14.667 5.33301 -29.334 9 -44.001 11l-78 2
c-34.667 0 -67.667 -11.667 -99 -35c-26 -20.667 -44.333 -50.667 -55 -90c-8 -32.667 -12 -82.334 -12 -149.001l1 -87l3 -51c6.66699 -56.667 22.334 -99.334 47.001 -128.001c32 -36 81.667 -54 149 -54s116.333 17.333 147 52c28 32 42 83.667 42 155h-123
c0 -29.333 -4.33301 -53 -13 -71c-10.667 -26 -29.334 -39 -56.001 -39c-26 0 -44.667 16 -56 48c-3.33301 11.333 -5.66602 21.333 -6.99902 30c-0.666992 4 -1 13.667 -1 29l1 46l1 28h258zM304 354.002l-128 -0.000976562v19v37c0 20 6 37.333 18 52
c11.333 12 28 18 50 18c23.333 0 40 -11 50 -33c6.66699 -13.333 10 -36.666 10 -69.999v-23z" />
    <glyph glyph-name="ecircumflex" unicode="&#xea;" horiz-adv-x="478" 
d="M374 625l-84 139h-102l-83 -139h60l73 72l75 -72h61zM435 264c0 50 -0.333008 81.6689 -1 95.002c-0.666992 19.333 -1.66699 35.333 -3 48l-11 53c-4.66699 16 -10.667 30 -18 42c-17.333 31.333 -41.333 53 -72 65c-14.667 5.33301 -29.334 9 -44.001 11l-78 2
c-34.667 0 -67.667 -11.667 -99 -35c-26 -20.667 -44.333 -50.667 -55 -90c-8 -32.667 -12 -82.334 -12 -149.001l1 -87l3 -51c6.66699 -56.667 22.334 -99.334 47.001 -128.001c32 -36 81.667 -54 149 -54s116.333 17.333 147 52c28 32 42 83.667 42 155h-123
c0 -29.333 -4.33301 -53 -13 -71c-10.667 -26 -29.334 -39 -56.001 -39c-26 0 -44.667 16 -56 48c-3.33301 11.333 -5.66602 21.333 -6.99902 30c-0.666992 4 -1 13.667 -1 29l1 46l1 28h258zM304 354.002l-128 -0.000976562v19v37c0 20 6 37.333 18 52
c11.333 12 28 18 50 18c23.333 0 40 -11 50 -33c6.66699 -13.333 10 -36.666 10 -69.999v-23z" />
    <glyph glyph-name="edieresis" unicode="&#xeb;" horiz-adv-x="478" 
d="M375 637v115h-106v-115h106zM210 637v115h-107v-115h107zM435 264c0 64.667 -1.66504 112.67 -4.99805 144.003c-6 40.667 -15.333 72 -28 94c-17.333 31.333 -41.333 53 -72 65c-14.667 5.33301 -29.334 9 -44.001 11l-78 2c-34.667 0 -67.667 -11.667 -99 -35
c-26 -20.667 -44.333 -50.667 -55 -90c-8 -32.667 -12 -82.334 -12 -149.001c0 -13.333 0.333008 -25.333 1 -36s1 -22.334 1 -35.001l1 -67c7.33301 -56.667 23.333 -99.334 48 -128.001c32 -36 81.667 -54 149 -54s116.333 17.333 147 52c28 32 42 83.667 42 155h-123
l-4 -40l-9 -31c-10.667 -26 -29.334 -39 -56.001 -39c-26 0 -44.667 16 -56 48c-6 20 -9 39.667 -9 59l1 46l1 28h259zM304.002 354.003l-128 -0.00195312v19l-1 37c0 20.667 6 37.334 18 50.001c12.667 13.333 29.667 20 51 20c23.333 0 40 -11 50 -33
c6.66699 -13.333 10 -36.666 10 -69.999v-23z" />
    <glyph glyph-name="igrave" unicode="&#xec;" horiz-adv-x="242" 
d="M189 625l-84 139h-125l149 -139h60zM186 0v564h-129v-564h129z" />
    <glyph glyph-name="iacute" unicode="&#xed;" horiz-adv-x="242" 
d="M262 764h-125l-84 -139h60zM186 0v564h-129v-564h129z" />
    <glyph glyph-name="icircumflex" unicode="&#xee;" horiz-adv-x="242" 
d="M256 625l-84 139h-102l-84 -139h61l74 72l74 -72h61zM186 0v564h-129v-564h129z" />
    <glyph glyph-name="idieresis" unicode="&#xef;" horiz-adv-x="242" 
d="M258 637v115h-108v-115h108zM92 637v115h-108v-115h108zM186 0v564h-129v-564h129z" />
    <glyph glyph-name="eth" unicode="&#xf0;" horiz-adv-x="479" 
d="M438 262c0 41.333 -2.66895 80.667 -8.00195 118c-4.66699 33.333 -12.334 64.333 -23.001 93c-24.667 66 -66.667 122 -126 168l106 56l-33 55l-125 -72l-28 18l-18 11l-35 19l-46 24l-24 -68l26 -16l44 -27l-109 -59l27 -51l129 71l42 -41l8 -9
c12.667 -14 21.334 -24.667 26.001 -32c-10.667 9.33301 -22.667 15.333 -36 18c-13.333 3.33301 -25 5 -35 5c-9.33301 0 -15 -0.333008 -17 -1l-6 -1c-3.33301 -1.33301 -6.66602 -2.33301 -9.99902 -3l-26 -10l-11 -5c-28.667 -16 -49.667 -38.667 -63 -68
c-11.333 -22 -18.666 -45 -21.999 -69c-2 -14.667 -3.66699 -36 -5 -64v-2c-0.666992 -14 -1 -37.667 -1 -71c0 -25.333 1 -49 3 -71c2 -24.667 4.33301 -42.334 7 -53.001c10 -46 27.667 -79.667 53 -101c31.333 -25.333 76.333 -38 135 -38c59.333 0 103.333 12 132 36
c28.667 22.667 48 56.334 58 101.001c7.33301 32.667 11 79 11 139zM306.998 278.001l-1 -78c0 -24.667 -2.66699 -47 -8 -67c-10 -31.333 -23.667 -47 -41 -47l-38 2l-17 6c-18.667 14 -28 51 -28 111l-1 76l-1 66v6c0 24.667 3.33301 45.667 10 63c10 26.667 29 40 57 40
c26.667 0 45.667 -13.667 57 -41c7.33301 -18 11 -44.333 11 -79v-58z" />
    <glyph glyph-name="ntilde" unicode="&#xf1;" horiz-adv-x="484" 
d="M379 758h-43.001c-4 -14 -9 -23.333 -15 -28c-6.66699 -6 -15 -9 -25 -9h-2c-9.33301 1.33301 -16 2.66602 -20 3.99902c-4.66699 0.666992 -12.667 2.66699 -24 6l-5 1c-24 8 -43 12 -57 12c-16.667 0 -32 -8 -46 -24c-16.667 -19.333 -29 -49 -37 -89h43
c4 12.667 9.33301 21.334 16 26.001c6.66699 5.33301 14.667 8 24 8l21 -3l29 -8c14 -5.33301 25.333 -8.33301 34 -9c12 -1.33301 22 -2 30 -2c12 0 21.667 3.33301 29 10c8.66699 7.33301 16.334 17.333 23.001 30c10.667 14.667 19 39.667 25 75zM429.999 0
c0 335.333 -11.002 516.001 -33.002 542.001c-22.667 26 -50 39 -82 39c-31.333 0 -57.666 -7 -78.999 -21c-22 -14.667 -38.667 -32 -50 -52v56h-129v-564h131c0 267.333 2.66699 410.666 8 429.999c8 26 24 39 48 39c24.667 0 41.334 -10 50.001 -30
c7.33301 -16 11 -36 11 -60v-379h125z" />
    <glyph glyph-name="ograve" unicode="&#xf2;" horiz-adv-x="479" 
d="M309 625l-84 139h-125l148 -139h61zM439 296c0 60 -4.00098 107.332 -12.001 141.999c-10 46.667 -29 81 -57 103c-32 26 -77 39 -135 39c-57.333 0 -101.666 -15 -132.999 -45c-26 -25.333 -43.667 -62.666 -53 -111.999c-6.66699 -31.333 -10 -79.666 -10 -144.999
c0 -60.667 3 -107.667 9 -141c10 -48 28 -84 54 -108c30.667 -28.667 76.667 -43 138 -43c62 0 108.333 15 139 45c26 25.333 43.667 63.666 53 114.999c4.66699 24 7 74 7 150zM304.999 280.999l-1 -45c0 -72 -6 -115 -18 -129s-30.667 -21 -56 -21c-26 0 -43 17 -51 51
c-2.66699 8.66699 -4 32.667 -4 72l-3 92l-1 80c0 34 7 59 21 75c13.333 15.333 33 23 59 23s42.667 -20.667 50 -62c2.66699 -8.66699 4 -29 4 -61v-13v-17v-45z" />
    <glyph glyph-name="oacute" unicode="&#xf3;" horiz-adv-x="479" 
d="M381 764h-125l-84 -139h60zM439 296c0 60 -4.00098 107.332 -12.001 141.999c-10 46.667 -29 81 -57 103c-32 26 -77 39 -135 39c-57.333 0 -101.666 -15 -132.999 -45c-26 -25.333 -43.667 -62.666 -53 -111.999c-6.66699 -31.333 -10 -79.666 -10 -144.999
c0 -60.667 3 -107.667 9 -141c10 -48 28 -84 54 -108c30.667 -28.667 76.667 -43 138 -43c62 0 108.333 15 139 45c26 25.333 43.667 63.666 53 114.999c4.66699 24 7 74 7 150zM304.999 280.999l-1 -45c0 -72 -6 -115 -18 -129s-30.667 -21 -56 -21c-26 0 -43 17 -51 51
c-2.66699 8.66699 -4 32.667 -4 72l-3 92l-1 80c0 34 7 59 21 75c13.333 15.333 33 23 59 23s42.667 -20.667 50 -62c2.66699 -8.66699 4 -29 4 -61v-13v-17v-45z" />
    <glyph glyph-name="ocircumflex" unicode="&#xf4;" horiz-adv-x="479" 
d="M375 625l-84 139h-102l-84 -139h61l74 72l74 -72h61zM439 296c0 60 -4.00098 107.332 -12.001 141.999c-10 46.667 -29 81 -57 103c-32 26 -77 39 -135 39c-57.333 0 -101.666 -15 -132.999 -45c-26 -25.333 -43.667 -62.666 -53 -111.999
c-6.66699 -31.333 -10 -79.666 -10 -144.999c0 -60.667 3 -107.667 9 -141c10 -48 28 -84 54 -108c30.667 -28.667 76.667 -43 138 -43c62 0 108.333 15 139 45c26 25.333 43.667 63.666 53 114.999c4.66699 24 7 74 7 150zM304.999 280.999l-1 -45c0 -72 -6 -115 -18 -129
s-30.667 -21 -56 -21c-26 0 -43 17 -51 51c-2.66699 8.66699 -4 32.667 -4 72l-3 92l-1 80c0 34 7 59 21 75c13.333 15.333 33 23 59 23s42.667 -20.667 50 -62c2.66699 -8.66699 4 -29 4 -61v-13v-17v-45z" />
    <glyph glyph-name="otilde" unicode="&#xf5;" horiz-adv-x="479" 
d="M377 758h-43c-4 -14 -9 -23.333 -15 -28c-6.66699 -6 -15 -9 -25 -9h-2c-9.33301 1.33301 -16 2.66602 -20 3.99902c-4.66699 0.666992 -12.667 2.66699 -24 6l-5 1c-24 8 -44.333 12 -61 12c-18.667 0 -36.334 -13.333 -53.001 -40c-12.667 -20.667 -21 -45 -25 -73h42
c4 12.667 9.33301 21.334 16 26.001c6.66699 5.33301 14.667 8 24 8l21 -3l29 -8c14 -4.66699 25.667 -7.66699 35 -9c12 -1.33301 21.667 -2 29 -2c20.667 0 38.334 13.333 53.001 40c10 18 18 43 24 75zM439 296c0 60 -4.00098 107.332 -12.001 141.999
c-10 46.667 -29 81 -57 103c-32 26 -77 39 -135 39c-57.333 0 -101.666 -15 -132.999 -45c-26 -25.333 -43.667 -62.666 -53 -111.999c-6.66699 -31.333 -10 -79.666 -10 -144.999c0 -60.667 3 -107.667 9 -141c10 -48 28 -84 54 -108c30.667 -28.667 76.667 -43 138 -43
c62 0 108.333 15 139 45c26 25.333 43.667 63.666 53 114.999c4.66699 24 7 74 7 150zM304.999 280.999l-1 -45c0 -72 -6 -115 -18 -129s-30.667 -21 -56 -21c-26 0 -43 17 -51 51c-2.66699 8.66699 -4 32.667 -4 72l-3 92l-1 80c0 34 7 59 21 75c13.333 15.333 33 23 59 23
s42.667 -20.667 50 -62c2.66699 -8.66699 4 -29 4 -61v-13v-17v-45z" />
    <glyph glyph-name="odieresis" unicode="&#xf6;" horiz-adv-x="479" 
d="M377 637v115h-107v-115h107zM211 637v115h-107v-115h107zM439 296c0 60 -4.00098 107.332 -12.001 141.999c-10 46.667 -29 81 -57 103c-32 26 -77 39 -135 39c-57.333 0 -101.666 -15 -132.999 -45c-26 -25.333 -43.667 -62.666 -53 -111.999
c-6.66699 -31.333 -10 -79.666 -10 -144.999c0 -60.667 3 -107.667 9 -141c10 -48 28 -84 54 -108c30.667 -28.667 76.667 -43 138 -43c62 0 108.333 15 139 45c26 25.333 43.667 63.666 53 114.999c4.66699 24 7 74 7 150zM304.999 280.999l-1 -45c0 -72 -6 -115 -18 -129
s-30.667 -21 -56 -21c-26 0 -43 17 -51 51c-2.66699 8.66699 -4 32.667 -4 72l-3 92l-1 80c0 34 7 59 21 75c13.333 15.333 33 23 59 23s42.667 -20.667 50 -62c2.66699 -8.66699 4 -29 4 -61v-13v-17v-45z" />
    <glyph glyph-name="divide" unicode="&#xf7;" horiz-adv-x="832" 
d="M470 391v115h-107v-115h107zM709 250v98h-586v-98h586zM470 92v115h-107v-115h107z" />
    <glyph glyph-name="oslash" unicode="&#xf8;" horiz-adv-x="479" 
d="M471 586l-46.998 35l-53 -82c-21.333 17.333 -42 28 -62 32c-20.667 6 -53 9 -97 9s-81.667 -15 -113 -45c-25.333 -25.333 -42.666 -63 -51.999 -113c-5.33301 -32 -8 -81 -8 -147c0 -66.667 9 -131.667 27 -195l-68 -103l49 -36l57 86c23.333 -17.333 44 -28 62 -32
c20 -6 52.333 -9 97 -9c45.333 0 83.666 14.667 114.999 44c25.333 23.333 42.666 60 51.999 110c5.33301 32 8 73.333 8 124c0 20.667 -0.666992 45 -2 73c-0.666992 16 -2.33398 35 -5.00098 57c-4.66699 35.333 -11.667 67.333 -21 96zM303.002 426l-131 -195.999
c0 137.333 6.66699 214.666 20 231.999c11.333 13.333 27 20 47 20c20.667 0 35 -4.66699 43 -14c8 -8.66699 15 -22.667 21 -42zM307.002 187.001c0 -42 -6 -70 -18 -84c-12.667 -14 -29.334 -21 -50.001 -21c-21.333 0 -36.666 6 -45.999 18c-10 11.333 -15 27.333 -15 48
l129 198v-159z" />
    <glyph glyph-name="ugrave" unicode="&#xf9;" horiz-adv-x="484" 
d="M311 625l-84 139h-125l148 -139h61zM428 0v564h-131c0 -268 -2.66699 -411 -8 -429c-10 -24.667 -26.667 -37 -50 -37c-24 0 -40.667 10.667 -50 32c-4.66699 11.333 -7 33 -7 65v369h-127c0 -336 11.333 -516.333 34 -541c22 -25.333 49 -38 81 -38
c33.333 0 60.333 6.33301 81 19c19.333 13.333 36 31 50 53v-57h127z" />
    <glyph glyph-name="uacute" unicode="&#xfa;" horiz-adv-x="484" 
d="M383 764h-125l-84 -139h60zM428 0v564h-131c0 -268 -2.66699 -411 -8 -429c-10 -24.667 -26.667 -37 -50 -37c-24 0 -40.667 10.667 -50 32c-4.66699 11.333 -7 33 -7 65v369h-127c0 -336 11.333 -516.333 34 -541c22 -25.333 49 -38 81 -38
c33.333 0 60.333 6.33301 81 19c19.333 13.333 36 31 50 53v-57h127z" />
    <glyph glyph-name="ucircumflex" unicode="&#xfb;" horiz-adv-x="484" 
d="M377 625l-84 139h-102l-84 -139h61l74 72l74 -72h61zM428 0v564h-131c0 -268 -2.66699 -411 -8 -429c-10 -24.667 -26.667 -37 -50 -37c-24 0 -40.667 10.667 -50 32c-4.66699 11.333 -7 33 -7 65v369h-127c0 -336 11.333 -516.333 34 -541c22 -25.333 49 -38 81 -38
c33.333 0 60.333 6.33301 81 19c19.333 13.333 36 31 50 53v-57h127z" />
    <glyph glyph-name="udieresis" unicode="&#xfc;" horiz-adv-x="484" 
d="M379 637v115h-108v-115h108zM213 637v115h-108v-115h108zM428 0v564h-131c0 -268 -2.66699 -411 -8 -429c-10 -24.667 -26.667 -37 -50 -37c-24 0 -40.667 10.667 -50 32c-4.66699 11.333 -7 33 -7 65v369h-127c0 -336 11.333 -516.333 34 -541c22 -25.333 49 -38 81 -38
c33.333 0 60.333 6.33301 81 19c19.333 13.333 36 31 50 53v-57h127z" />
    <glyph glyph-name="yacute" unicode="&#xfd;" horiz-adv-x="443" 
d="M363 764h-125l-84 -139h61zM434 564h-131l-76 -408l-79 408h-138l144 -582l5 -17l1 -24c0 -11.333 -9 -19.333 -27 -24c-4.66699 -2.66699 -14.667 -4 -30 -4l-17 1v-98l21 -3l55 -1c30 0 56.333 11 79 33c18.667 18.667 34 52.667 46 102z" />
    <glyph glyph-name="thorn" unicode="&#xfe;" horiz-adv-x="486" 
d="M445 252l-1.00195 86.001l-4 64l-9 52l-8 35c-10 29.333 -23.667 51.333 -41 66c-21.333 17.333 -46.666 26 -75.999 26s-54.333 -6.33301 -75 -19c-21.333 -12.667 -35.666 -29.334 -42.999 -50.001v240h-131v-941h131v238c24.667 -42.667 60 -64 106 -64
c46.667 0 82 15 106 45c20 26 33 61.333 39 106c4 28 6 66.667 6 116zM313.998 231.001c0 -35.333 -2.66699 -63.667 -8 -85c-10 -32.667 -29 -49 -57 -49s-46.333 17.333 -55 52l-4 30v3c-1.33301 10 -2 17 -2 21v22l-3 80v21v12l1 20l3 49l4 24c8 28 22 42 42 42
s34.667 -2.66699 44 -8c9.33301 -6 16 -15.333 20 -28c4.66699 -10 8 -23 10 -39c2.66699 -11.333 4 -25.333 4 -42l1 -82v-43z" />
    <glyph glyph-name="ydieresis" unicode="&#xff;" horiz-adv-x="443" 
d="M359 637v115h-107v-115h107zM193 637v115h-107v-115h107zM434 564h-131l-76 -408l-79 408h-138l144 -582l5 -17l1 -24c0 -11.333 -9 -19.333 -27 -24c-4.66699 -2.66699 -14.667 -4 -30 -4l-17 1v-98l21 -3l55 -1c30 0 56.333 11 79 33c18.667 18.667 34 52.667 46 102z
" />
    <glyph glyph-name="OE" unicode="&#x152;" horiz-adv-x="814" 
d="M777 0v126.999h-252v209h231v115h-231v176h246v125h-371v-55c-13.333 26 -30 44.667 -50 56c-21.333 11.333 -52 17 -92 17s-76.667 -11.667 -110 -35c-28.667 -20 -50 -48.333 -64 -85c-14 -34.667 -23.667 -79 -29 -133l-2 -37v-39l-2 -49l-1 -87
c0 -40.667 4 -82.667 12 -126c10.667 -60 31 -106 61 -138c34.667 -38.667 75.667 -58 123 -58c44.667 0 78.667 5.66699 102 17c22.667 12.667 40 31.334 52 56.001v-56h377zM391 200.999c0 -31.333 -7.66699 -56.6689 -23 -76.002c-16 -19.333 -40.333 -29 -73 -29
s-57.667 16 -75 48c-7.33301 15.333 -13 30.333 -17 45s-7 33 -9 55l-3 64l-1 67v61l2 68c0 8 0.666992 18 2 30l4 23l1 5c6 18.667 12.333 34.334 19 47.001c19.333 32 44 48 74 48c32.667 0 57 -9 73 -27c17.333 -17.333 26 -39.666 26 -66.999v-362z" />
    <glyph glyph-name="oe" unicode="&#x153;" horiz-adv-x="695" 
d="M658 348c0 71.333 -11.332 125.335 -33.999 162.002c-28 46.667 -65 70 -111 70c-45.333 0 -79.333 -5.33301 -102 -16c-22 -10.667 -41 -26 -57 -46c-22.667 24.667 -43.334 41 -62.001 49c-20 8.66699 -43.667 13 -71 13c-25.333 0 -46 -2.33301 -62 -7
c-16.667 -4.66699 -34.334 -13 -53.001 -25c-30 -20 -49 -58 -57 -114c-1.33301 -8 -2.66602 -21 -3.99902 -39c-0.666992 -10.667 -1 -28.667 -1 -54l-1 -77l-1 -57c0 -28.667 3.33301 -61.667 10 -99c8 -36 24.333 -65.333 49 -88c25.333 -24 58 -36 98 -36
c40.667 0 72 4.33301 94 13c24 9.33301 44.667 24.666 62 45.999c14.667 -20.667 33 -35.667 55 -45s57 -14 105 -14s84.333 19.333 109 58c20 31.333 30 81.666 30 150.999h-118l-3 -42l-5 -30c-8.66699 -26 -24 -39 -46 -39c-23.333 0 -39 7.66699 -47 23
c-8.66699 14.667 -13 33 -13 55v102h234l1 50zM536.001 378.002l-1.00098 -13l-1 -11h-112l-1 19l-1 27c0 16.667 3.33301 32 10 46c10 22 25.667 33 47 33c20.667 0 36.334 -8.33301 47.001 -25c8 -14 12 -32.667 12 -56v-20zM296 200.002
c0 -32.667 -3.33203 -57.999 -9.99902 -75.999c-10.667 -28 -32 -42 -64 -42c-35.333 0 -53 37.333 -53 112v55v37l-1 73v9c0 11.333 0.666992 23.666 2 36.999c1.33301 10 3.33301 19.333 6 28c8.66699 30.667 25.667 46 51 46c23.333 0 40.666 -5.66699 51.999 -17
c10 -12 15 -39.333 15 -82l2 -138v-42z" />
    <glyph glyph-name="Scaron" unicode="&#x160;" horiz-adv-x="549" 
d="M399 971h-60l-74 -72l-75 72h-60l84 -139h101zM498 215c0 59.333 -26.6641 113 -79.9971 161c-2.66699 3.33301 -51.667 37.666 -147 102.999c-52.667 36.667 -79 69 -79 97s6.33301 48.333 19 61s29.667 19 51 19c18.667 0 36 -3.66699 52 -11
c14.667 -9.33301 24 -22 28 -38l5 -14c1.33301 -5.33301 2 -13 2 -23l1 -35v-14h132c0 64 -6 111.333 -18 142c-12.667 31.333 -36.334 56.666 -71.001 75.999c-19.333 12.667 -39.333 21 -60 25c-16.667 4.66699 -49 7 -97 7c-22.667 0 -44.334 -4.66699 -65.001 -14
s-40.334 -23.333 -59.001 -42c-37.333 -37.333 -56 -76 -56 -116c0 -39.333 2 -68.666 6 -87.999c3.33301 -19.333 9.33301 -35 18 -47c7.33301 -10.667 16.333 -22 27 -34c8.66699 -9.33301 20.667 -20.666 36 -33.999l79 -58l79 -55l27 -21c10 -8 16.667 -16.667 20 -26
c4.66699 -6.66699 7 -14.667 7 -24l1 -44c0 -11.333 -1.33301 -20 -4 -26l-1 -3c-2.66699 -6 -4.66699 -10 -6 -12c-0.666992 -1.33301 -2 -3.33301 -4 -6l-5 -5c-14 -13.333 -35 -20 -63 -20c-28.667 0 -49.667 6 -63 18c-13.333 16.667 -20 35.334 -20 56.001l-1 66v28
h-138l-1 -27v-76c0 -42.667 18.667 -83.334 56 -122.001c37.333 -38 93.333 -57 168 -57c76 0 132.667 19.667 170 59c36 39.333 54 97.333 54 174z" />
    <glyph glyph-name="scaron" unicode="&#x161;" horiz-adv-x="439" 
d="M354 786h-60l-74 -72l-74 72h-61l84 -140h102zM402 145c0 17.333 -1.33203 31.335 -3.99902 42.002c-2.66699 10 -6.33398 19.667 -11.001 29l-6 12l-2 3l-17 18l-21 23c-16 16 -30 27.667 -42 35l-100 66c-26 22 -39 40.333 -39 55c0 17.333 4.33301 30.666 13 39.999
c10 10 26 15 48 15c23.333 0 39.333 -9 48 -27c6.66699 -10.667 10 -31.667 10 -63h116c0 62 -13.667 109.333 -41 142c-28 31.333 -70.667 47 -128 47s-102.333 -13.333 -135 -40c-34 -26.667 -51 -65.334 -51 -116.001c0 -50 20.667 -94.667 62 -134l113 -81
c41.333 -27.333 62 -51.333 62 -72c0 -21.333 -5.66699 -36 -17 -44c-11.333 -8.66699 -28.333 -13 -51 -13c-22 0 -37.667 11.667 -47 35c-5.33301 14 -8 37.667 -8 71h-117c0 -73.333 14.333 -125.333 43 -156c28.667 -31.333 72.667 -47 132 -47
c58 0 104.333 13.667 139 41c34 27.333 51 67 51 119z" />
    <glyph glyph-name="Ydieresis" unicode="&#x178;" horiz-adv-x="551" 
d="M541 752h-150l-114 -283l-113 283h-154l195 -434v-318h143v318z" />
    <glyph glyph-name="florin" unicode="&#x192;" 
d="M467 738c-15.333 6.66699 -28.668 10.999 -40.001 12.999c-16.667 3.33301 -39.667 5 -69 5c-30 0 -59 -14 -87 -42c-22.667 -22 -40.667 -55 -54 -99c-6 -22 -14 -61.667 -24 -119h-127v-96h116l-67 -388c-6 -27.333 -11.333 -45.666 -16 -54.999
c-12 -20 -24 -30 -36 -30l-30 2l-23 7l-14 -112l44 -9c14 -2 34 -3 60 -3c26.667 0 53.334 14 80.001 42c20 20.667 37.667 52.667 53 96c10.667 29.333 19 66.333 25 111l55 339h121v96h-112c0.666992 3.33301 1 5.33301 1 6c2 8 3.33301 14 4 18
c1.33301 6 2.33301 16 3 30l9 42c14 40 29.667 60 47 60c12.667 0 20.667 -0.333008 24 -1l15 -3l22 -9z" />
    <glyph glyph-name="circumflex" unicode="&#x2c6;" 
d="M385 625l-84 139h-102l-83 -139h60l74 72l74 -72h61z" />
    <glyph glyph-name="tilde" unicode="&#x2dc;" 
d="M387 758l-42.999 0.000976562c-4 -13.333 -8.33301 -22.333 -13 -27c-6.66699 -6.66699 -15.334 -10 -26.001 -10c-10.667 1.33301 -18.334 2.66602 -23.001 3.99902l-19 4c-2.66699 0.666992 -6 1.66699 -10 3c-24 8 -44.667 12 -62 12c-20 0 -37.333 -13 -52 -39
c-10.667 -16.667 -19.334 -41.334 -26.001 -74.001h43c4 12.667 9.33301 21.334 16 26.001c6.66699 5.33301 14.334 8 23.001 8l21 -3l29 -8c14 -5.33301 25.333 -8.33301 34 -9c12 -1.33301 22 -2 30 -2c18.667 0 36.334 13.333 53.001 40c10 16.667 18.333 41.667 25 75z
" />
    <glyph glyph-name="endash" unicode="&#x2013;" horiz-adv-x="1000" 
d="M1000 242l-2 80h-998l2 -80h998z" />
    <glyph glyph-name="emdash" unicode="&#x2014;" 
d="M500 242v80h-500v-80h500z" />
    <glyph glyph-name="quoteleft" unicode="&#x2018;" horiz-adv-x="250" 
d="M180 508l-0.000976562 127h-63c0 23.333 5 43 15 59c10 15.333 26 25 48 29v47c-37.333 -8 -65.666 -21.667 -84.999 -41c-24 -24 -36 -52.667 -36 -86v-135h121z" />
    <glyph glyph-name="quoteright" unicode="&#x2019;" horiz-adv-x="250" 
d="M180 617v134.998h-121v-127h62c0 -24 -5 -44 -15 -60c-10 -15.333 -25.667 -24.666 -47 -27.999v-47c36 6.66699 65.333 21.334 88 44.001c22 21.333 33 49 33 83z" />
    <glyph glyph-name="quotesinglbase" unicode="&#x201a;" horiz-adv-x="443" 
d="M373 -6v135.001h-121v-129h62c0 -24.667 -4.66699 -43.667 -14 -57c-9.33301 -16.667 -25.333 -26.334 -48 -29.001v-49c36.667 8 65 22 85 42c24 24 36 53 36 87zM180 -5.99902v135h-121v-129h62c0 -23.333 -5 -43 -15 -59s-25.667 -25 -47 -27v-49
c36.667 8 66 23 88 45s33 50 33 84z" />
    <glyph glyph-name="quotedblleft" unicode="&#x201c;" horiz-adv-x="442" 
d="M373 723v47c-35.333 -5.33301 -64 -19 -86 -41c-23.333 -23.333 -35 -52 -35 -86v-135h119v127h-60c0 24.667 4.66699 44.667 14 60c8.66699 14.667 24.667 24 48 28zM180 508l-0.000976562 127h-63v4c0 20.667 5 39 15 55c10 15.333 26 25 48 29v47
c-37.333 -8 -65.666 -21.667 -84.999 -41c-24 -24 -36 -52.667 -36 -86v-135h121z" />
    <glyph glyph-name="quotedblright" unicode="&#x201d;" horiz-adv-x="443" 
d="M373 617v135h-121v-127h62c0 -22.667 -4.66699 -41.667 -14 -57c-12 -18.667 -28 -29 -48 -31v-47c36 7.33301 65 22 87 44c22.667 22 34 49.667 34 83zM180 617v134.998h-121v-127h62c0 -24 -5 -44 -15 -60c-10 -15.333 -25.667 -24.666 -47 -27.999v-47
c36 6.66699 65.333 21.334 88 44.001c22 21.333 33 49 33 83z" />
    <glyph glyph-name="quotedblbase" unicode="&#x201e;" horiz-adv-x="443" 
d="M373 -6v135.001h-121v-129h62c0 -24.667 -4.66699 -43.667 -14 -57c-9.33301 -16.667 -25.333 -26.334 -48 -29.001v-49c36.667 8 65 22 85 42c24 24 36 53 36 87zM180 -5.99902v135h-121v-129h62c0 -23.333 -5 -43 -15 -59s-25.667 -25 -47 -27v-49
c36.667 8 66 23 88 45s33 50 33 84z" />
    <glyph glyph-name="dagger" unicode="&#x2020;" 
d="M461 434v119h-148v199h-127v-199h-149v-119h149v-520h127v520h148z" />
    <glyph glyph-name="daggerdbl" unicode="&#x2021;" 
d="M457 108v112h-144v229h144v114h-144v189h-127v-189h-143v-114h143v-229h-143v-113h143v-189h127v189z" />
    <glyph glyph-name="bullet" unicode="&#x2022;" horiz-adv-x="250" 
d="M204 375c0 19.333 -8.66699 36.667 -26 52c-17.333 14.667 -36.333 22 -57 22c-21.333 0 -39 -8 -53 -24s-21 -34.333 -21 -55c0 -22.667 8.33301 -41 25 -55c17.333 -14 36 -21 56 -21c21.333 0 39 8 53 24c15.333 16.667 23 35.667 23 57z" />
    <glyph glyph-name="ellipsis" unicode="&#x2026;" horiz-adv-x="1000" 
d="M895 0v135h-125v-135h125zM561 0v135h-125v-135h125zM229 0v135h-125v-135h125z" />
    <glyph glyph-name="perthousand" unicode="&#x2030;" horiz-adv-x="1127" 
d="M1084 174c0 30 -2.33398 54.666 -7.00098 73.999c-4.66699 21.333 -11.667 39.333 -21 54c-24 38 -61 57 -111 57c-68.667 0 -115.667 -16.667 -141 -50c-20.667 -26.667 -31 -71 -31 -133c0 -60.667 10 -105.667 30 -135c26 -36.667 66.667 -55 122 -55
c56.667 0 98.334 18 125.001 54c22.667 30.667 34 75.334 34 134.001zM983.999 171.999c0 -13.333 -0.666016 -27.332 -1.99902 -41.999c-0.666992 -10.667 -2.33398 -20.334 -5.00098 -29.001c-8.66699 -26.667 -25.667 -40 -51 -40c-27.333 0 -44 13.333 -50 40
c-3.33301 12 -5 35.333 -5 70c0 32.667 2.66699 58 8 76c10 24 27 36 51 36s40 -14 48 -42c4 -16 6 -39 6 -69zM354 570c0 62.667 -10.332 108.333 -30.999 137c-24.667 34 -66 51 -124 51s-99 -16.667 -123 -50c-20.667 -26.667 -31 -70.667 -31 -132
c0 -60 9.66699 -105.667 29 -137c25.333 -37.333 65.666 -56 120.999 -56c56.667 0 98 17.667 124 53c23.333 31.333 35 76 35 134zM256.001 567.999c0 -12.667 -0.668945 -26.332 -2.00195 -40.999c-0.666992 -10.667 -2.66699 -20.667 -6 -30
c-10 -25.333 -26.333 -38 -49 -38c-23.333 0 -39.666 9.66699 -48.999 29c-4.66699 9.33301 -7 28.666 -7 57.999c0 33.333 1 57.333 3 72c2.66699 12 4.66699 20.667 6 26c1.33301 4.66699 2.33301 7.66699 3 9c0.666992 4 1.33398 6.66699 2.00098 8
c4 9.33301 10 15.333 18 18c7.33301 2 20 3 38 3c16.667 0 29 -14.333 37 -43c4 -16 6 -39.667 6 -71zM593.999 758.001h-74l-344 -772h72zM726.999 174.001c0 54 -9.66797 96.667 -29.001 128c-24 38 -60.667 57 -110 57c-70 0 -117 -16.667 -141 -50
c-20.667 -28.667 -31 -73 -31 -133c0 -60.667 10 -105.667 30 -135c24.667 -36.667 65.334 -55 122.001 -55c57.333 0 99 17.667 125 53c22.667 28.667 34 73.667 34 135zM628.998 172.001c0 -30 -2.66797 -54 -8.00098 -72c-10 -26 -27 -39 -51 -39
c-25.333 0 -41.666 13.667 -48.999 41c-3.33301 14.667 -5 37.667 -5 69c0 15.333 0.666992 30.333 2 45c1.33301 11.333 3.33301 21 6 29c10 25.333 26.667 38 50 38c24.667 0 41 -13.667 49 -41c4 -16 6 -39.333 6 -70z" />
    <glyph glyph-name="guilsinglleft" unicode="&#x2039;" horiz-adv-x="287" 
d="M221 94v107l-94 82l94 80v108l-155 -139v-100z" />
    <glyph glyph-name="guilsinglright" unicode="&#x203a;" horiz-adv-x="287" 
d="M221 232v100l-155 139v-108l94 -82l-94 -80v-107z" />
    <glyph glyph-name="trademark" unicode="&#x2122;" horiz-adv-x="832" 
d="M705 447v268h-96l-58 -162l-63 162h-95v-268h64v199l78 -199h29l77 199v-199h64zM338 660v55h-236v-55h82v-213h72v213h82z" />
    </font>
</defs>
</svg>
